<svg xmlns="http://www.w3.org/2000/svg" xmlns:xlink="http://www.w3.org/1999/xlink" xmlns:lucid="lucid" width="1206.41" height="1221.36"><g transform="translate(-100 -50.739808962710526)" lucid:page-tab-id="0_0"><path d="M0 0h1870.87v1322.83H0z" fill="#fff"/><path d="M381.5 186.1c0-3.32 2.7-6 6-6h248c3.3 0 6 2.68 6 6v220c0 3.3-2.7 6-6 6h-248c-3.3 0-6-2.7-6-6z" fill="#fff"/><path d="M381.5 186.1c0-3.32 2.7-6 6-6h248c3.3 0 6 2.68 6 6v220c0 3.3-2.7 6-6 6h-248c-3.3 0-6-2.7-6-6zM381.5 220.1h260" stroke="#5e5e5e" stroke-width="3" fill="none"/><use xlink:href="#a" transform="matrix(1,0,0,1,391.5,180.09483670658068) translate(51.269753086419755 31.644444444444442)"/><use xlink:href="#b" transform="matrix(1,0,0,1,386.5,222.59483670658068) translate(0 17.144444444444446)"/><use xlink:href="#c" transform="matrix(1,0,0,1,386.5,222.59483670658068) translate(72.83827160493826 17.144444444444446)"/><use xlink:href="#d" transform="matrix(1,0,0,1,386.5,222.59483670658068) translate(96.07160493827159 17.144444444444446)"/><use xlink:href="#e" transform="matrix(1,0,0,1,386.5,254.59483670658068) translate(0 17.144444444444446)"/><use xlink:href="#f" transform="matrix(1,0,0,1,386.5,254.59483670658068) translate(34.36913580246913 17.144444444444446)"/><use xlink:href="#g" transform="matrix(1,0,0,1,386.5,286.5948367065807) translate(0 17.144444444444446)"/><use xlink:href="#h" transform="matrix(1,0,0,1,386.5,318.5948367065807) translate(0 17.144444444444446)"/><use xlink:href="#i" transform="matrix(1,0,0,1,386.5,350.5948367065807) translate(0 17.144444444444446)"/><use xlink:href="#j" transform="matrix(1,0,0,1,386.5,382.5948367065807) translate(0 17.144444444444446)"/><use xlink:href="#k" transform="matrix(1,0,0,1,386.5,382.5948367065807) translate(48.49135802469135 17.144444444444446)"/><path d="M820 495.42c0-3.32 2.7-6 6-6h248c3.3 0 6 2.68 6 6v156c0 3.3-2.7 6-6 6H826c-3.3 0-6-2.7-6-6z" fill="#fff"/><path d="M820 495.42c0-3.32 2.7-6 6-6h248c3.3 0 6 2.68 6 6v156c0 3.3-2.7 6-6 6H826c-3.3 0-6-2.7-6-6zM820 529.42h260" stroke="#5e5e5e" stroke-width="3" fill="none"/><use xlink:href="#l" transform="matrix(1,0,0,1,830,489.4173228346456) translate(35.02283950617284 31.644444444444442)"/><use xlink:href="#m" transform="matrix(1,0,0,1,830,489.4173228346456) translate(104.53641975308642 31.644444444444442)"/><use xlink:href="#n" transform="matrix(1,0,0,1,825,531.9173228346456) translate(0 17.1)"/><use xlink:href="#o" transform="matrix(1,0,0,1,825,531.9173228346456) translate(5 17.1)"/><use xlink:href="#p" transform="matrix(1,0,0,1,825,531.9173228346456) translate(76.95 17.1)"/><use xlink:href="#q" transform="matrix(1,0,0,1,825,531.9173228346456) translate(99.9 17.1)"/><use xlink:href="#r" transform="matrix(1,0,0,1,825,563.9173228346456) translate(0 17.144444444444446)"/><use xlink:href="#s" transform="matrix(1,0,0,1,825,563.9173228346456) translate(58.61481481481481 17.144444444444446)"/><use xlink:href="#t" transform="matrix(1,0,0,1,825,563.9173228346456) translate(133.47777777777776 17.144444444444446)"/><use xlink:href="#u" transform="matrix(1,0,0,1,825,595.9173228346456) translate(0 17.1)"/><use xlink:href="#v" transform="matrix(1,0,0,1,825,627.9173228346456) translate(0 17.1)"/><use xlink:href="#w" transform="matrix(1,0,0,1,825,627.9173228346456) translate(58 17.1)"/><path d="M917.9 76.74c0-3.3 2.7-6 6-6h228c3.32 0 6 2.7 6 6v188c0 3.3-2.68 6-6 6h-228c-3.3 0-6-2.7-6-6z" fill="#fff"/><path d="M917.9 76.74c0-3.3 2.7-6 6-6h228c3.32 0 6 2.7 6 6v188c0 3.3-2.68 6-6 6h-228c-3.3 0-6-2.7-6-6zM917.9 110.74h240" stroke="#5e5e5e" stroke-width="3" fill="none"/><use xlink:href="#x" transform="matrix(1,0,0,1,927.9019124062038,70.73980896271053) translate(31.26049382716053 31.64444444444445)"/><use xlink:href="#y" transform="matrix(1,0,0,1,922.9019124062038,113.23980896271053) translate(0 17.144444444444446)"/><use xlink:href="#z" transform="matrix(1,0,0,1,922.9019124062038,113.23980896271053) translate(72.83827160493824 17.144444444444446)"/><use xlink:href="#A" transform="matrix(1,0,0,1,922.9019124062038,113.23980896271053) translate(96.07160493827158 17.144444444444446)"/><use xlink:href="#B" transform="matrix(1,0,0,1,922.9019124062038,145.23980896271053) translate(0 17.144444444444446)"/><use xlink:href="#r" transform="matrix(1,0,0,1,922.9019124062038,177.23980896271053) translate(0 17.144444444444446)"/><use xlink:href="#C" transform="matrix(1,0,0,1,922.9019124062038,177.23980896271053) translate(58.61481481481481 17.144444444444446)"/><use xlink:href="#r" transform="matrix(1,0,0,1,922.9019124062038,209.23980896271053) translate(0 17.144444444444446)"/><use xlink:href="#D" transform="matrix(1,0,0,1,922.9019124062038,209.23980896271053) translate(58.61481481481481 17.144444444444446)"/><use xlink:href="#E" transform="matrix(1,0,0,1,922.9019124062038,241.23980896271053) translate(0 17.144444444444446)"/><path d="M880 1026.1c0-3.32 2.7-6 6-6h300.72c3.3 0 6 2.68 6 6v156c0 3.3-2.7 6-6 6H886c-3.3 0-6-2.7-6-6z" fill="#fff"/><path d="M880 1026.1c0-3.32 2.7-6 6-6h300.72c3.3 0 6 2.68 6 6v156c0 3.3-2.7 6-6 6H886c-3.3 0-6-2.7-6-6zM880 1060.1h312.72" stroke="#5e5e5e" stroke-width="3" fill="none"/><use xlink:href="#F" transform="matrix(1,0,0,1,890,1020.0948367065807) translate(29.696296296296325 31.644444444444446)"/><use xlink:href="#G" transform="matrix(1,0,0,1,890,1020.0948367065807) translate(119.63456790123458 31.644444444444446)"/><use xlink:href="#H" transform="matrix(1,0,0,1,890,1020.0948367065807) translate(141.68395061728395 31.644444444444446)"/><use xlink:href="#b" transform="matrix(1,0,0,1,885,1062.5948367065807) translate(0 17.144444444444446)"/><use xlink:href="#c" transform="matrix(1,0,0,1,885,1062.5948367065807) translate(72.83827160493826 17.144444444444446)"/><use xlink:href="#I" transform="matrix(1,0,0,1,885,1062.5948367065807) translate(96.07160493827159 17.144444444444446)"/><use xlink:href="#J" transform="matrix(1,0,0,1,885,1094.5948367065807) translate(0 17.144444444444446)"/><use xlink:href="#K" transform="matrix(1,0,0,1,885,1094.5948367065807) translate(106.29629629629628 17.144444444444446)"/><use xlink:href="#L" transform="matrix(1,0,0,1,885,1094.5948367065807) translate(161.92469135802466 17.144444444444446)"/><use xlink:href="#M" transform="matrix(1,0,0,1,885,1094.5948367065807) translate(177.10987654320985 17.144444444444446)"/><use xlink:href="#N" transform="matrix(1,0,0,1,885,1094.5948367065807) translate(210.51728395061724 17.144444444444446)"/><use xlink:href="#r" transform="matrix(1,0,0,1,885,1126.5948367065807) translate(0 17.144444444444446)"/><use xlink:href="#O" transform="matrix(1,0,0,1,885,1126.5948367065807) translate(58.61481481481481 17.144444444444446)"/><use xlink:href="#P" transform="matrix(1,0,0,1,885,1126.5948367065807) translate(119.35555555555554 17.144444444444446)"/><use xlink:href="#Q" transform="matrix(1,0,0,1,885,1158.5948367065807) translate(0 17.144444444444446)"/><path d="M380 786c0-3.3 2.7-6 6-6h248c3.3 0 6 2.7 6 6v112c0 3.3-2.7 6-6 6H386c-3.3 0-6-2.7-6-6z" fill="#fff"/><path d="M380 786c0-3.3 2.7-6 6-6h248c3.3 0 6 2.7 6 6v112c0 3.3-2.7 6-6 6H386c-3.3 0-6-2.7-6-6zM380 840h260" stroke="#5e5e5e" stroke-width="3" fill="none"/><use xlink:href="#R" transform="matrix(1,0,0,1,390,780) translate(11.116666666666674 26.577777777777772)"/><use xlink:href="#S" transform="matrix(1,0,0,1,390,780) translate(118.86851851851851 26.577777777777772)"/><use xlink:href="#T" transform="matrix(1,0,0,1,390,780) translate(138.5969135802469 26.577777777777772)"/><use xlink:href="#U" transform="matrix(1,0,0,1,390,780) translate(82.98024691358025 51.644444444444446)"/><use xlink:href="#V" transform="matrix(1,0,0,1,385,842.5) translate(0 17.1)"/><use xlink:href="#W" transform="matrix(1,0,0,1,385,874.5) translate(0 17.1)"/><use xlink:href="#X" transform="matrix(1,0,0,1,385,874.5) translate(81.9 17.1)"/><path d="M381.5 1026.1c0-3.32 2.7-6 6-6h248c3.3 0 6 2.68 6 6v220c0 3.3-2.7 6-6 6h-248c-3.3 0-6-2.7-6-6z" fill="#fff"/><path d="M381.5 1026.1c0-3.32 2.7-6 6-6h248c3.3 0 6 2.68 6 6v220c0 3.3-2.7 6-6 6h-248c-3.3 0-6-2.7-6-6zM381.5 1060.1h260" stroke="#5e5e5e" stroke-width="3" fill="none"/><use xlink:href="#Y" transform="matrix(1,0,0,1,391.5,1020.0948367065807) translate(69.02530864197531 31.644444444444442)"/><use xlink:href="#b" transform="matrix(1,0,0,1,386.5,1062.5948367065807) translate(0 17.144444444444446)"/><use xlink:href="#c" transform="matrix(1,0,0,1,386.5,1062.5948367065807) translate(72.83827160493826 17.144444444444446)"/><use xlink:href="#Z" transform="matrix(1,0,0,1,386.5,1062.5948367065807) translate(96.07160493827159 17.144444444444446)"/><use xlink:href="#aa" transform="matrix(1,0,0,1,386.5,1094.5948367065807) translate(0 17.144444444444446)"/><use xlink:href="#ab" transform="matrix(1,0,0,1,386.5,1126.5948367065807) translate(0 17.144444444444446)"/><use xlink:href="#ac" transform="matrix(1,0,0,1,386.5,1158.5948367065807) translate(0 17.144444444444446)"/><use xlink:href="#ad" transform="matrix(1,0,0,1,386.5,1158.5948367065807) translate(78.8617283950617 17.144444444444446)"/><use xlink:href="#ae" transform="matrix(1,0,0,1,386.5,1190.5948367065807) translate(0 17.1)"/><use xlink:href="#af" transform="matrix(1,0,0,1,386.5,1222.5948367065807) translate(0 17.1)"/><path d="M511 758.5h-2V606.7h2zm1.5-173.12h-2v-132.8h2z" stroke="#5e5e5e" stroke-width=".05" fill="#5e5e5e"/><path d="M521.5 414.04l-10 20-10-20" fill="#fff" fill-opacity="0"/><path d="M522.4 414.5l-10.9 21.78-10.9-21.8 1.8-.9 9.1 18.23 9.1-18.2z" stroke="#5e5e5e" stroke-width=".05" fill="#5e5e5e"/><path fill="#fff"/><path d="M512.5 434.04h-2v-20h2z" stroke="#5e5e5e" stroke-width=".05" fill="#5e5e5e"/><path d="M521.5 444.04l-.5 3.16-1.43 2.75-2.16 2.16-2.74 1.43-3.16.5-3.16-.5-2.75-1.42-2.17-2.15-1.42-2.75-.5-3.16.5-3.16 1.43-2.74 2.16-2.17 2.74-1.42 3.16-.5 3.16.5 2.75 1.42 2.17 2.17 1.42 2.74.5 3.16" fill="#fff"/><path d="M514.98 433.6l3.02 1.55 2.4 2.4 1.55 3 .54 3.33-1 .16 1 .16-.55 3.32-1.56 3.03-2.4 2.38-3.02 1.56-3.48.55-3.48-.56-3.02-1.57-2.4-2.38-1.55-3.03-.56-3.48.55-3.48 1.56-3.02 2.4-2.4 3.02-1.55 3.48-.57zm-6.32 1.9l-2.47 1.3-1.95 1.93-1.28 2.47-.46 2.84.47 2.85 1.28 2.45 1.94 1.95 2.46 1.27 2.84.46 2.84-.46 2.47-1.27 1.95-1.95 1.28-2.46.46-2.86-.47-2.84-1.28-2.47-1.94-1.94-2.46-1.3-2.84-.45z" stroke="#5e5e5e" stroke-width=".05" fill="#5e5e5e"/><path fill="#fff"/><path d="M520 769.5h-20v-2h20z" stroke="#5e5e5e" stroke-width=".05" fill="#5e5e5e"/><path fill="#fff"/><path d="M511 778.5h-2v-20h2z" stroke="#5e5e5e" stroke-width=".05" fill="#5e5e5e"/><path fill="#fff"/><path d="M520 759.5h-20v-2h20z" stroke="#5e5e5e" stroke-width=".05" fill="#5e5e5e"/><use xlink:href="#ag" transform="matrix(1,0,0,1,482.65123456790127,585.3807516866237) translate(0 14.222222222222223)"/><path d="M1291 1134.57l-.92 3.42-2.53 2.52-3.42.92h-50.9v-2h50.64l2.64-.7 1.8-1.8.7-2.63V455.36h2zm-6.87-835.43l3.42.92 2.53 2.53.92 3.4v128.02h-2V306.27l-.72-2.64-1.77-1.77-2.63-.72L663 301.1v-2z" stroke="#5e5e5e" stroke-width=".05" fill="#5e5e5e"/><path fill="#fff"/><path d="M654 290.1v20h-2v-20z" stroke="#5e5e5e" stroke-width=".05" fill="#5e5e5e"/><path fill="#fff"/><path d="M663 299.1v2h-20v-2z" stroke="#5e5e5e" stroke-width=".05" fill="#5e5e5e"/><path fill="#fff"/><path d="M664 290.1v20h-2v-20z" stroke="#5e5e5e" stroke-width=".05" fill="#5e5e5e"/><path d="M1194.66 1130.44l20 10-20 10" fill="#fff" fill-opacity="0"/><path d="M1216.9 1140.44l-21.8 10.9-.88-1.8 18.2-9.1-18.2-9.1.9-1.8z" stroke="#5e5e5e" stroke-width=".05" fill="#5e5e5e"/><path fill="#fff"/><path d="M1214.66 1141.44h-20v-2h20z" stroke="#5e5e5e" stroke-width=".05" fill="#5e5e5e"/><path d="M1234.66 1140.44l-.5 3.16-1.43 2.75-2.16 2.16-2.75 1.43-3.16.5-3.16-.5-2.74-1.42-2.17-2.15-1.43-2.75-.5-3.16.5-3.16 1.42-2.75 2.16-2.16 2.74-1.42 3.16-.5 3.16.5 2.75 1.42 2.16 2.16 1.42 2.75.5 3.16" fill="#fff"/><path d="M1228.14 1130l3.03 1.55 2.38 2.4 1.57 3 .53 3.33-1 .16 1 .16-.53 3.32-1.57 3.02-2.38 2.4-3.03 1.55-3.48.55-3.47-.56-3.04-1.57-2.38-2.4-1.57-3-.55-3.5.56-3.47 1.58-3.02 2.38-2.4 3.03-1.55 3.46-.57zm-6.32 1.9l-2.46 1.3-1.95 1.93-1.26 2.47-.46 2.84.46 2.84 1.27 2.47 1.96 1.94 2.46 1.27 2.84.46 2.85-.46 2.47-1.28 1.95-1.95 1.27-2.47.45-2.84-.46-2.84-1.28-2.47-1.95-1.94-2.46-1.3-2.84-.45z" stroke="#5e5e5e" stroke-width=".05" fill="#5e5e5e"/><use xlink:href="#ah" transform="matrix(1,0,0,1,1284.5925925925926,434.01565893751354) translate(0 14.222222222222223)"/><path d="M711 1141.1h-48v-2h48zm128.5 0h-65.38v-2h65.38z" stroke="#5e5e5e" stroke-width=".05" fill="#5e5e5e"/><path d="M878.05 1150.1l-20-10 20-10" fill="#fff" fill-opacity="0"/><path d="M878.5 1131l-18.2 9.1 18.2 9.1-.9 1.8-21.78-10.9 21.8-10.9z" stroke="#5e5e5e" stroke-width=".05" fill="#5e5e5e"/><path fill="#fff"/><path d="M878.05 1141.1h-20v-2h20z" stroke="#5e5e5e" stroke-width=".05" fill="#5e5e5e"/><path d="M858.05 1140.1l-.5 3.16-1.43 2.74-2.16 2.17-2.75 1.42-3.15.5-3.16-.5-2.75-1.43-2.17-2.17-1.42-2.74-.5-3.17.5-3.17 1.42-2.74 2.17-2.18 2.74-1.42 3.15-.5 3.16.5 2.76 1.42 2.16 2.17 1.42 2.73.5 3.16" fill="#fff"/><path d="M851.53 1129.64l3.03 1.57 2.38 2.4 1.56 3.02.54 3.32-1 .15 1 .15-.54 3.32-1.56 3.03-2.38 2.38-3.03 1.57-3.48.56-3.48-.55-3.02-1.57-2.38-2.38-1.57-3.03-.56-3.48.56-3.48 1.57-3.03 2.38-2.4 3.02-1.56 3.48-.56zm-6.32 1.93l-2.46 1.27-1.94 1.95-1.28 2.45-.45 2.84.45 2.84 1.28 2.46 1.94 1.95 2.47 1.27 2.85.46 2.85-.46 2.46-1.27 1.95-1.95 1.28-2.46.46-2.85-.46-2.85-1.27-2.46-1.94-1.96-2.46-1.27-2.85-.46z" stroke="#5e5e5e" stroke-width=".05" fill="#5e5e5e"/><path fill="#fff"/><path d="M654 1150.1h-2v-20h2z" stroke="#5e5e5e" stroke-width=".05" fill="#5e5e5e"/><path fill="#fff"/><path d="M663 1141.1h-20v-2h20z" stroke="#5e5e5e" stroke-width=".05" fill="#5e5e5e"/><path fill="#fff"/><path d="M664 1150.1h-2v-20h2z" stroke="#5e5e5e" stroke-width=".05" fill="#5e5e5e"/><use xlink:href="#ai" transform="matrix(1,0,0,1,711.0047499482064,1129.428170039914) translate(0 14.222222222222223)"/><path d="M947.55 396.02l2.53 2.53.92 3.4v46.97h-2v-46.7l-.7-2.63-1.8-1.8-2.63-.7H889.6v-2h54.53zM663 397.1v-2h215.8v2z" stroke="#5e5e5e" stroke-width=".05" fill="#5e5e5e"/><path fill="#fff"/><path d="M654 406.1h-2v-20h2z" stroke="#5e5e5e" stroke-width=".05" fill="#5e5e5e"/><path fill="#fff"/><path d="M663 397.1h-20v-2h20z" stroke="#5e5e5e" stroke-width=".05" fill="#5e5e5e"/><path fill="#fff"/><path d="M664 406.1h-2v-20h2z" stroke="#5e5e5e" stroke-width=".05" fill="#5e5e5e"/><path d="M940 487.47l10-20 10 20" fill="#fff" fill-opacity="0"/><path d="M960.9 487.02l-1.8.9-9.1-18.2-9.1 18.2-1.8-.9 10.9-21.8z" stroke="#5e5e5e" stroke-width=".05" fill="#5e5e5e"/><path fill="#fff"/><path d="M951 487.47h-2v-20h2z" stroke="#5e5e5e" stroke-width=".05" fill="#5e5e5e"/><path d="M960 457.47l-.5 3.16-1.43 2.75-2.16 2.16-2.74 1.42-3.16.5-3.16-.5-2.75-1.42-2.17-2.16-1.42-2.75-.5-3.16.5-3.16 1.43-2.74 2.16-2.16 2.74-1.42 3.16-.5 3.16.5 2.75 1.42 2.17 2.16 1.42 2.75.5 3.17" fill="#fff"/><path d="M953.48 447.02l3.02 1.56 2.4 2.4 1.55 3 .54 3.33-1 .17 1 .16-.55 3.32-1.56 3.02-2.4 2.4-3.02 1.55-3.48.56-3.48-.56-3.02-1.56-2.4-2.4-1.55-3-.56-3.5.55-3.47 1.56-3.03 2.4-2.4 3.02-1.55 3.48-.56zm-6.32 1.92l-2.47 1.28-1.95 1.94-1.28 2.47-.46 2.84.47 2.84 1.28 2.48 1.94 1.94 2.46 1.28 2.84.46 2.84-.46 2.47-1.28 1.95-1.94 1.28-2.47.46-2.83-.47-2.84-1.28-2.47-1.94-1.94-2.46-1.28-2.84-.46z" stroke="#5e5e5e" stroke-width=".05" fill="#5e5e5e"/><use xlink:href="#ah" transform="matrix(1,0,0,1,878.7947217644011,385.428170039914) translate(0 14.222222222222223)"/><path d="M864.9 811H661.5v-2h203.4zm86.1-11.67h-2v-101.4h2z" stroke="#5e5e5e" stroke-width=".05" fill="#5e5e5e"/><path d="M960 659.36l-10 20-10-20" fill="#fff" fill-opacity="0"/><path d="M960.9 659.8L950 681.6l-10.9-21.8 1.8-.88 9.1 18.2 9.1-18.2z" stroke="#5e5e5e" stroke-width=".05" fill="#5e5e5e"/><path fill="#fff"/><path d="M951 679.36h-2v-20h2z" stroke="#5e5e5e" stroke-width=".05" fill="#5e5e5e"/><path d="M960 689.36l-.5 3.17-1.43 2.74-2.16 2.17-2.74 1.4-3.16.52-3.16-.5-2.75-1.42-2.17-2.17-1.42-2.74-.5-3.17.5-3.16 1.43-2.74 2.16-2.17 2.74-1.43 3.16-.5 3.16.5 2.75 1.42 2.17 2.16 1.42 2.74.5 3.16" fill="#fff"/><path d="M953.48 678.9l3.02 1.58 2.4 2.38 1.55 3.03.54 3.3-1 .16 1 .16-.55 3.32-1.56 3.03-2.4 2.38-3.02 1.57-3.48.56-3.48-.56-3.02-1.57-2.4-2.38-1.55-3.03-.56-3.48.55-3.47 1.56-3.04 2.4-2.38 3.02-1.57 3.48-.55zm-6.32 1.94l-2.47 1.27-1.95 1.96-1.28 2.46-.46 2.84.47 2.85 1.28 2.47 1.94 1.95 2.46 1.27 2.84.45 2.84-.46 2.47-1.28 1.95-1.95 1.28-2.46.46-2.84-.47-2.84-1.28-2.46-1.94-1.95-2.46-1.26-2.84-.46z" stroke="#5e5e5e" stroke-width=".05" fill="#5e5e5e"/><path fill="#fff"/><path d="M652.5 820h-2v-20h2z" stroke="#5e5e5e" stroke-width=".05" fill="#5e5e5e"/><path fill="#fff"/><path d="M661.5 811h-20v-2h20z" stroke="#5e5e5e" stroke-width=".05" fill="#5e5e5e"/><path fill="#fff"/><path d="M662.5 820h-2v-20h2z" stroke="#5e5e5e" stroke-width=".05" fill="#5e5e5e"/><use xlink:href="#aj" transform="matrix(1,0,0,1,864.9148688100533,799.3333333333334) translate(0 14.222222222222223)"/><path d="M1200.4 571.6l-.92 3.4-2.53 2.54-3.42.92h-73.03v-2h72.77l2.64-.7 1.8-1.8.7-2.63V359h2zm-3.45-445.5l2.53 2.54.92 3.42v205.6h-2V132.32l-.7-2.64-1.8-1.78-2.63-.7h-13.87v-2h14.13z" stroke="#5e5e5e" stroke-width=".05" fill="#5e5e5e"/><path fill="#fff"/><path d="M1170.4 136.2h-2v-20h2z" stroke="#5e5e5e" stroke-width=".05" fill="#5e5e5e"/><path fill="#fff"/><path d="M1179.4 127.2h-20v-2h20z" stroke="#5e5e5e" stroke-width=".05" fill="#5e5e5e"/><path fill="#fff"/><path d="M1180.4 136.2h-2v-20h2z" stroke="#5e5e5e" stroke-width=".05" fill="#5e5e5e"/><path d="M1081.95 567.46l20 10-20 10" fill="#fff" fill-opacity="0"/><path d="M1104.18 577.46l-21.8 10.9-.88-1.8 18.2-9.1-18.2-9.1.9-1.8z" stroke="#5e5e5e" stroke-width=".05" fill="#5e5e5e"/><path fill="#fff"/><path d="M1101.95 578.46h-20v-2h20z" stroke="#5e5e5e" stroke-width=".05" fill="#5e5e5e"/><path d="M1121.95 577.46l-.5 3.16-1.43 2.75-2.17 2.16-2.74 1.42-3.15.5-3.16-.5-2.76-1.42-2.16-2.16-1.42-2.75-.5-3.16.5-3.16 1.42-2.74 2.16-2.17 2.75-1.43 3.15-.5 3.16.5 2.75 1.42 2.17 2.16 1.42 2.74.5 3.16" fill="#fff"/><path d="M1115.43 567l3.02 1.58 2.38 2.38 1.57 3.03.53 3.3-.98.16.98.16-.53 3.32-1.57 3.03-2.38 2.38-3.02 1.57-3.48.56-3.48-.56-3.03-1.57-2.38-2.38-1.56-3.03-.57-3.48.57-3.47 1.56-3.04 2.38-2.38 3.03-1.57 3.48-.55zm-6.33 1.94l-2.46 1.27-1.95 1.95-1.28 2.47-.46 2.84.46 2.85 1.27 2.47 1.94 1.95 2.46 1.27 2.85.45 2.84-.46 2.46-1.28 1.94-1.95 1.28-2.46.45-2.84-.45-2.84-1.28-2.47-1.94-1.94-2.47-1.26-2.85-.46z" stroke="#5e5e5e" stroke-width=".05" fill="#5e5e5e"/><use xlink:href="#ak" transform="matrix(1,0,0,1,1168.834011171636,337.66006938826945) translate(0 14.222222222222223)"/><path d="M510 906.5v54.8c0 .4.34.75.75.75.4 0 .75.33.75.75v37.3" stroke="#5e5e5e" stroke-width="2" fill="none"/><path d="M511 906.53h-2v-1.03h2z" stroke="#5e5e5e" stroke-width=".05" fill="#5e5e5e"/><path d="M511.5 1015.36l-4.64-14.27h9.28z" stroke="#5e5e5e" stroke-width="2" fill="#5e5e5e"/><path d="M687.96 127.74H517.63l-2.64.7-1.8 1.8-.7 2.63v6.72h-2v-7l.92-3.4 2.53-2.54 3.42-.92h170.6zm208.44 0h-83.3v-2h83.3z" stroke="#5e5e5e" stroke-width=".05" fill="#5e5e5e"/><path fill="#fff"/><path d="M907.4 136.74h-2v-20h2z" stroke="#5e5e5e" stroke-width=".05" fill="#5e5e5e"/><path fill="#fff"/><path d="M916.4 127.74h-20v-2h20z" stroke="#5e5e5e" stroke-width=".05" fill="#5e5e5e"/><path fill="#fff"/><path d="M897.4 136.74h-2v-20h2z" stroke="#5e5e5e" stroke-width=".05" fill="#5e5e5e"/><path d="M501.5 178.15l10-20 10 20" fill="#fff" fill-opacity="0"/><path d="M522.4 177.7l-1.8.9-9.1-18.22-9.1 18.2-1.8-.88 10.9-21.8z" stroke="#5e5e5e" stroke-width=".05" fill="#5e5e5e"/><path fill="#fff"/><path d="M512.5 178.15h-2v-20h2z" stroke="#5e5e5e" stroke-width=".05" fill="#5e5e5e"/><path d="M521.5 148.15l-.5 3.16-1.43 2.75-2.16 2.17-2.74 1.42-3.16.5-3.16-.5-2.75-1.42-2.17-2.17-1.42-2.74-.5-3.15.5-3.16 1.43-2.76 2.16-2.16 2.74-1.42 3.16-.5 3.16.5 2.75 1.42 2.17 2.16L521 145l.5 3.15" fill="#fff"/><path d="M514.98 137.7l3.02 1.56 2.4 2.38 1.55 3.03.54 3.32-1 .15 1 .16-.55 3.33-1.56 3.02-2.4 2.4-3.02 1.55-3.48.56-3.48-.56-3.02-1.56-2.4-2.4-1.55-3-.56-3.5.55-3.47 1.56-3.03 2.4-2.38 3.02-1.56 3.48-.57zm-6.32 1.92l-2.47 1.27-1.95 1.94-1.28 2.46-.46 2.85.47 2.84 1.28 2.46 1.94 1.94 2.46 1.28 2.84.45 2.84-.45 2.47-1.28 1.95-1.94 1.28-2.47.46-2.85-.47-2.85-1.28-2.46-1.94-1.95-2.46-1.28-2.84-.46z" stroke="#5e5e5e" stroke-width=".05" fill="#5e5e5e"/><use xlink:href="#al" transform="matrix(1,0,0,1,687.9586227509837,116.07314229604387) translate(0 14.222222222222223)"/><use xlink:href="#am" transform="matrix(1,0,0,1,687.9586227509837,116.07314229604387) translate(50.27160493827161 14.222222222222223)"/><use xlink:href="#an" transform="matrix(1,0,0,1,687.9586227509837,116.07314229604387) translate(60.14814814814815 14.222222222222223)"/><path d="M120 495.42c0-3.32 2.7-6 6-6h228c3.3 0 6 2.68 6 6v112c0 3.3-2.7 6-6 6H126c-3.3 0-6-2.7-6-6z" fill="#fff"/><path d="M120 495.42c0-3.32 2.7-6 6-6h228c3.3 0 6 2.68 6 6v112c0 3.3-2.7 6-6 6H126c-3.3 0-6-2.7-6-6zM120 529.42h240" stroke="#5e5e5e" stroke-width="3" fill="none"/><g><use xlink:href="#ao" transform="matrix(1,0,0,1,130,489.4173228346456) translate(12.605555555555554 31.644444444444442)"/><use xlink:href="#ap" transform="matrix(1,0,0,1,130,489.4173228346456) translate(108.81049382716049 31.644444444444442)"/><use xlink:href="#aq" transform="matrix(1,0,0,1,130,489.4173228346456) translate(142.46481481481482 31.644444444444442)"/></g><g><use xlink:href="#ar" transform="matrix(1,0,0,1,125,531.9173228346456) translate(0 17.1)"/><use xlink:href="#as" transform="matrix(1,0,0,1,125,531.9173228346456) translate(71.95 17.1)"/><use xlink:href="#at" transform="matrix(1,0,0,1,125,531.9173228346456) translate(94.9 17.1)"/><use xlink:href="#au" transform="matrix(1,0,0,1,125,531.9173228346456) translate(167.75 17.1)"/><use xlink:href="#av" transform="matrix(1,0,0,1,125,531.9173228346456) translate(187.75 17.1)"/></g><g><use xlink:href="#aw" transform="matrix(1,0,0,1,125,563.9173228346456) translate(0 17.1)"/><use xlink:href="#ax" transform="matrix(1,0,0,1,125,563.9173228346456) translate(45 17.1)"/><use xlink:href="#ay" transform="matrix(1,0,0,1,125,563.9173228346456) translate(113 17.1)"/><use xlink:href="#az" transform="matrix(1,0,0,1,125,563.9173228346456) translate(132.95 17.1)"/></g><g><use xlink:href="#r" transform="matrix(1,0,0,1,125,595.9173228346456) translate(0 14.577777777777778)"/><use xlink:href="#O" transform="matrix(1,0,0,1,125,595.9173228346456) translate(58.61481481481481 14.577777777777778)"/><use xlink:href="#aA" transform="matrix(1,0,0,1,125,595.9173228346456) translate(119.35555555555554 14.577777777777778)"/></g><path d="M241 849.46l.7 2.64 1.8 1.78 2.63.7H358.5v2H245.87l-3.42-.9-2.53-2.54-.92-3.4v-34.57h2zm0-55.62h-2V653.92h2z" stroke="#5e5e5e" stroke-width=".05" fill="#5e5e5e"/><path fill="#fff"/><path d="M369.5 865.6h-2v-20h2z" stroke="#5e5e5e" stroke-width=".05" fill="#5e5e5e"/><path fill="#fff"/><path d="M378.5 856.6h-20v-2h20z" stroke="#5e5e5e" stroke-width=".05" fill="#5e5e5e"/><path fill="#fff"/><path d="M359.5 865.6h-2v-20h2z" stroke="#5e5e5e" stroke-width=".05" fill="#5e5e5e"/><path d="M250 615.36l-10 20-10-20" fill="#fff" fill-opacity="0"/><path d="M250.9 615.8L240 637.6l-10.9-21.8 1.8-.88 9.1 18.2 9.1-18.2z" stroke="#5e5e5e" stroke-width=".05" fill="#5e5e5e"/><path fill="#fff"/><path d="M241 635.36h-2v-20h2z" stroke="#5e5e5e" stroke-width=".05" fill="#5e5e5e"/><path d="M250 645.36l-.5 3.17-1.43 2.74-2.16 2.17-2.74 1.4-3.16.52-3.16-.5-2.75-1.42-2.17-2.17-1.42-2.74-.5-3.17.5-3.16 1.43-2.74 2.16-2.17 2.74-1.43 3.16-.5 3.16.5 2.75 1.42 2.17 2.16 1.42 2.74.5 3.16" fill="#fff"/><path d="M243.48 634.9l3.02 1.58 2.4 2.38 1.55 3.03.54 3.3-1 .16 1 .16-.55 3.32-1.56 3.03-2.4 2.38-3.02 1.57-3.48.56-3.48-.56-3.02-1.57-2.4-2.38-1.55-3.03-.56-3.48.55-3.47 1.56-3.04 2.4-2.38 3.02-1.57 3.48-.55zm-6.32 1.94l-2.47 1.27-1.95 1.96-1.28 2.46-.46 2.84.47 2.85 1.28 2.47 1.94 1.95 2.46 1.27 2.84.45 2.84-.46 2.47-1.28 1.95-1.95 1.28-2.46.46-2.84-.47-2.84-1.28-2.46-1.94-1.95-2.46-1.26-2.84-.46z" stroke="#5e5e5e" stroke-width=".05" fill="#5e5e5e"/><g><use xlink:href="#aB" transform="matrix(1,0,0,1,208.96296296296296,793.8394131039465) translate(0 14.222222222222223)"/></g><path d="M241 448.92h-2v-38.98h2zM360 333.1H246.13l-2.64.7-1.8 1.8-.7 2.63v50.38h-2v-50.64l.92-3.4 2.53-2.54 3.42-.93H360z" stroke="#5e5e5e" stroke-width=".05" fill="#5e5e5e"/><path d="M230 487.47l10-20 10 20" fill="#fff" fill-opacity="0"/><path d="M250.9 487.02l-1.8.9-9.1-18.2-9.1 18.2-1.8-.9 10.9-21.8z" stroke="#5e5e5e" stroke-width=".05" fill="#5e5e5e"/><path fill="#fff"/><path d="M241 487.47h-2v-20h2z" stroke="#5e5e5e" stroke-width=".05" fill="#5e5e5e"/><path d="M250 457.47l-.5 3.16-1.43 2.75-2.16 2.16-2.74 1.42-3.16.5-3.16-.5-2.75-1.42-2.17-2.16-1.42-2.75-.5-3.16.5-3.16 1.43-2.74 2.16-2.16 2.74-1.42 3.16-.5 3.16.5 2.75 1.42 2.17 2.16 1.42 2.75.5 3.17" fill="#fff"/><path d="M243.48 447.02l3.02 1.56 2.4 2.4 1.55 3 .54 3.33-1 .17 1 .16-.55 3.32-1.56 3.02-2.4 2.4-3.02 1.55-3.48.56-3.48-.56-3.02-1.56-2.4-2.4-1.55-3-.56-3.5.55-3.47 1.56-3.03 2.4-2.4 3.02-1.55 3.48-.56zm-6.32 1.92l-2.47 1.28-1.95 1.94-1.28 2.47-.46 2.84.47 2.84 1.28 2.48 1.94 1.94 2.46 1.28 2.84.46 2.84-.46 2.47-1.28 1.95-1.94 1.28-2.47.46-2.83-.47-2.84-1.28-2.47-1.94-1.94-2.46-1.28-2.84-.46z" stroke="#5e5e5e" stroke-width=".05" fill="#5e5e5e"/><path fill="#fff"/><path d="M371 342.1h-2v-20h2z" stroke="#5e5e5e" stroke-width=".05" fill="#5e5e5e"/><path fill="#fff"/><path d="M380 333.1h-20v-2h20z" stroke="#5e5e5e" stroke-width=".05" fill="#5e5e5e"/><path fill="#fff"/><path d="M361 342.1h-2v-20h2z" stroke="#5e5e5e" stroke-width=".05" fill="#5e5e5e"/><g><use xlink:href="#ah" transform="matrix(1,0,0,1,234.59259259259258,388.61000146901273) translate(0 14.222222222222223)"/></g><defs><path d="M190 0L58-211 59 0H30v-248h39L202-35l-2-213h31V0h-41" id="aC"/><path d="M30 0v-248h187v28H63v79h144v27H63v87h162V0H30" id="aD"/><path d="M240 0l2-218c-23 76-54 145-80 218h-23L58-218 59 0H30v-248h44l77 211c21-75 51-140 76-211h43V0h-30" id="aE"/><path d="M140-251c81 0 123 46 123 126C263-46 219 4 140 4 59 4 17-45 17-125s42-126 123-126zm0 227c63 0 89-41 89-101s-29-99-89-99c-61 0-89 39-89 99S79-25 140-24" id="aF"/><path d="M137 0h-34L2-248h35l83 218 83-218h36" id="aG"/><path d="M33 0v-248h34V0H33" id="aH"/><path d="M127-220V0H93v-220H8v-28h204v28h-85" id="aI"/><path d="M185-189c-5-48-123-54-124 2 14 75 158 14 163 119 3 78-121 87-175 55-17-10-28-26-33-46l33-7c5 56 141 63 141-1 0-78-155-14-162-118-5-82 145-84 179-34 5 7 8 16 11 25" id="aJ"/><g id="a"><use transform="matrix(0.05802469135802469,0,0,0.05802469135802469,0,0)" xlink:href="#aC"/><use transform="matrix(0.05802469135802469,0,0,0.05802469135802469,15.028395061728395,0)" xlink:href="#aD"/><use transform="matrix(0.05802469135802469,0,0,0.05802469135802469,28.95432098765432,0)" xlink:href="#aE"/><use transform="matrix(0.05802469135802469,0,0,0.05802469135802469,46.303703703703704,0)" xlink:href="#aF"/><use transform="matrix(0.05802469135802469,0,0,0.05802469135802469,62.550617283950615,0)" xlink:href="#aG"/><use transform="matrix(0.05802469135802469,0,0,0.05802469135802469,76.47654320987654,0)" xlink:href="#aH"/><use transform="matrix(0.05802469135802469,0,0,0.05802469135802469,82.279012345679,0)" xlink:href="#aI"/><use transform="matrix(0.05802469135802469,0,0,0.05802469135802469,94.58024691358024,0)" xlink:href="#aF"/><use transform="matrix(0.05802469135802469,0,0,0.05802469135802469,110.82716049382715,0)" xlink:href="#aJ"/><use transform="matrix(0.05802469135802469,0,0,0.05802469135802469,124.75308641975309,0)" xlink:href="#aI"/></g><path d="M15-91v-56l181-69v40L49-119l147 57v40" id="aK"/><path d="M24-248c93 1 206-16 204 79-1 75-69 88-152 82V0H24v-248zm52 121c47 0 100 7 100-41 0-47-54-39-100-39v80" id="aL"/><path d="M195 0l-88-114-31 24V0H24v-248h52v113l112-113h60L142-143 257 0h-62" id="aM"/><path d="M15-22v-40l146-57-146-57v-40l181 69v56" id="aN"/><g id="b"><use transform="matrix(0.05061728395061728,0,0,0.05061728395061728,0,0)" xlink:href="#aK"/><use transform="matrix(0.05061728395061728,0,0,0.05061728395061728,10.629629629629628,0)" xlink:href="#aK"/><use transform="matrix(0.05061728395061728,0,0,0.05061728395061728,21.259259259259256,0)" xlink:href="#aL"/><use transform="matrix(0.05061728395061728,0,0,0.05061728395061728,33.407407407407405,0)" xlink:href="#aM"/><use transform="matrix(0.05061728395061728,0,0,0.05061728395061728,46.51728395061728,0)" xlink:href="#aN"/><use transform="matrix(0.05061728395061728,0,0,0.05061728395061728,57.14691358024691,0)" xlink:href="#aN"/></g><path d="M24 0v-248h52V0H24" id="aO"/><path d="M24-248c120-7 223 5 221 122C244-46 201 0 124 0H24v-248zM76-40c74 7 117-18 117-86 0-67-45-88-117-82v168" id="aP"/><g id="c"><use transform="matrix(0.05061728395061728,0,0,0.05061728395061728,0,0)" xlink:href="#aO"/><use transform="matrix(0.05061728395061728,0,0,0.05061728395061728,5.061728395061728,0)" xlink:href="#aP"/></g><path d="M135-194c87-1 58 113 63 194h-50c-7-57 23-157-34-157-59 0-34 97-39 157H25l-1-190h47c2 12-1 28 3 38 12-26 28-41 61-42" id="aQ"/><path d="M185-48c-13 30-37 53-82 52C43 2 14-33 14-96s30-98 90-98c62 0 83 45 84 108H66c0 31 8 55 39 56 18 0 30-7 34-22zm-45-69c5-46-57-63-70-21-2 6-4 13-4 21h74" id="aR"/><path d="M220-157c-53 9-28 100-34 157h-49v-107c1-27-5-49-29-50C55-147 81-57 75 0H25l-1-190h47c2 12-1 28 3 38 10-53 101-56 108 0 13-22 24-43 59-42 82 1 51 116 57 194h-49v-107c-1-25-5-48-29-50" id="aS"/><path d="M110-194c64 0 96 36 96 99 0 64-35 99-97 99-61 0-95-36-95-99 0-62 34-99 96-99zm-1 164c35 0 45-28 45-65 0-40-10-65-43-65-34 0-45 26-45 65 0 36 10 65 43 65" id="aT"/><path d="M128 0H69L1-190h53L99-40l48-150h52" id="aU"/><path d="M25-224v-37h50v37H25zM25 0v-190h50V0H25" id="aV"/><path d="M115-3C79 11 28 4 28-45v-112H4v-33h27l15-45h31v45h36v33H77v99c-1 23 16 31 38 25v30" id="aW"/><path d="M137-138c1-29-70-34-71-4 15 46 118 7 119 86 1 83-164 76-172 9l43-7c4 19 20 25 44 25 33 8 57-30 24-41C81-84 22-81 20-136c-2-80 154-74 161-7" id="aX"/><g id="d"><use transform="matrix(0.05061728395061728,0,0,0.05061728395061728,0,0)" xlink:href="#aQ"/><use transform="matrix(0.05061728395061728,0,0,0.05061728395061728,11.085185185185184,0)" xlink:href="#aR"/><use transform="matrix(0.05061728395061728,0,0,0.05061728395061728,21.208641975308637,0)" xlink:href="#aS"/><use transform="matrix(0.05061728395061728,0,0,0.05061728395061728,37.40617283950617,0)" xlink:href="#aT"/><use transform="matrix(0.05061728395061728,0,0,0.05061728395061728,48.49135802469135,0)" xlink:href="#aU"/><use transform="matrix(0.05061728395061728,0,0,0.05061728395061728,58.61481481481481,0)" xlink:href="#aV"/><use transform="matrix(0.05061728395061728,0,0,0.05061728395061728,63.676543209876534,0)" xlink:href="#aW"/><use transform="matrix(0.05061728395061728,0,0,0.05061728395061728,69.69999999999999,0)" xlink:href="#aT"/><use transform="matrix(0.05061728395061728,0,0,0.05061728395061728,80.78518518518517,0)" xlink:href="#aX"/><use transform="matrix(0.05061728395061728,0,0,0.05061728395061728,90.90864197530863,0)" xlink:href="#aW"/><use transform="matrix(0.05061728395061728,0,0,0.05061728395061728,96.93209876543209,0)" xlink:href="#aV"/></g><path d="M179-190L93 31C79 59 56 82 12 73V49c39 6 53-20 64-50L1-190h34L92-34l54-156h33" id="aY"/><path d="M115-194c55 1 70 41 70 98S169 2 115 4C84 4 66-9 55-30l1 105H24l-1-265h31l2 30c10-21 28-34 59-34zm-8 174c40 0 45-34 45-75s-6-73-45-74c-42 0-51 32-51 76 0 43 10 73 51 73" id="aZ"/><g id="e"><use transform="matrix(0.05061728395061728,0,0,0.05061728395061728,0,0)" xlink:href="#aI"/><use transform="matrix(0.05061728395061728,0,0,0.05061728395061728,10.072839506172839,0)" xlink:href="#aY"/><use transform="matrix(0.05061728395061728,0,0,0.05061728395061728,19.183950617283948,0)" xlink:href="#aZ"/></g><path d="M117-194c89-4 53 116 60 194h-32v-121c0-31-8-49-39-48C34-167 62-67 57 0H25l-1-190h30c1 10-1 24 2 32 11-22 29-35 61-36" id="ba"/><path d="M100-194c63 0 86 42 84 106H49c0 40 14 67 53 68 26 1 43-12 49-29l28 8c-11 28-37 45-77 45C44 4 14-33 15-96c1-61 26-98 85-98zm52 81c6-60-76-77-97-28-3 7-6 17-6 28h103" id="bb"/><path d="M210-169c-67 3-38 105-44 169h-31v-121c0-29-5-50-35-48C34-165 62-65 56 0H25l-1-190h30c1 10-1 24 2 32 10-44 99-50 107 0 11-21 27-35 58-36 85-2 47 119 55 194h-31v-121c0-29-5-49-35-48" id="bc"/><path d="M100-194c62-1 85 37 85 99 1 63-27 99-86 99S16-35 15-95c0-66 28-99 85-99zM99-20c44 1 53-31 53-75 0-43-8-75-51-75s-53 32-53 75 10 74 51 75" id="bd"/><path d="M108 0H70L1-190h34L89-25l56-165h34" id="be"/><path d="M24-231v-30h32v30H24zM24 0v-190h32V0H24" id="bf"/><path d="M59-47c-2 24 18 29 38 22v24C64 9 27 4 27-40v-127H5v-23h24l9-43h21v43h35v23H59v120" id="bg"/><path d="M135-143c-3-34-86-38-87 0 15 53 115 12 119 90S17 21 10-45l28-5c4 36 97 45 98 0-10-56-113-15-118-90-4-57 82-63 122-42 12 7 21 19 24 35" id="bh"/><g id="f"><use transform="matrix(0.05061728395061728,0,0,0.05061728395061728,0,0)" xlink:href="#ba"/><use transform="matrix(0.05061728395061728,0,0,0.05061728395061728,10.123456790123456,0)" xlink:href="#bb"/><use transform="matrix(0.05061728395061728,0,0,0.05061728395061728,20.24691358024691,0)" xlink:href="#bc"/><use transform="matrix(0.05061728395061728,0,0,0.05061728395061728,35.38148148148148,0)" xlink:href="#bd"/><use transform="matrix(0.05061728395061728,0,0,0.05061728395061728,45.504938271604935,0)" xlink:href="#be"/><use transform="matrix(0.05061728395061728,0,0,0.05061728395061728,54.61604938271604,0)" xlink:href="#bf"/><use transform="matrix(0.05061728395061728,0,0,0.05061728395061728,58.61481481481481,0)" xlink:href="#bg"/><use transform="matrix(0.05061728395061728,0,0,0.05061728395061728,63.676543209876534,0)" xlink:href="#bd"/><use transform="matrix(0.05061728395061728,0,0,0.05061728395061728,73.79999999999998,0)" xlink:href="#bh"/><use transform="matrix(0.05061728395061728,0,0,0.05061728395061728,82.9111111111111,0)" xlink:href="#bg"/><use transform="matrix(0.05061728395061728,0,0,0.05061728395061728,87.97283950617282,0)" xlink:href="#bf"/></g><path d="M30-248c87 1 191-15 191 75 0 78-77 80-158 76V0H30v-248zm33 125c57 0 124 11 124-50 0-59-68-47-124-48v98" id="bi"/><path d="M24 0v-261h32V0H24" id="bj"/><path d="M96-169c-40 0-48 33-48 73s9 75 48 75c24 0 41-14 43-38l32 2c-6 37-31 61-74 61-59 0-76-41-82-99-10-93 101-131 147-64 4 7 5 14 7 22l-32 3c-4-21-16-35-41-35" id="bk"/><path d="M106-169C34-169 62-67 57 0H25v-261h32l-1 103c12-21 28-36 61-36 89 0 53 116 60 194h-32v-121c2-32-8-49-39-48" id="bl"/><path d="M141-36C126-15 110 5 73 4 37 3 15-17 15-53c-1-64 63-63 125-63 3-35-9-54-41-54-24 1-41 7-42 31l-33-3c5-37 33-52 76-52 45 0 72 20 72 64v82c-1 20 7 32 28 27v20c-31 9-61-2-59-35zM48-53c0 20 12 33 32 33 41-3 63-29 60-74-43 2-92-5-92 41" id="bm"/><g id="g"><use transform="matrix(0.05061728395061728,0,0,0.05061728395061728,0,0)" xlink:href="#bi"/><use transform="matrix(0.05061728395061728,0,0,0.05061728395061728,12.148148148148147,0)" xlink:href="#bj"/><use transform="matrix(0.05061728395061728,0,0,0.05061728395061728,16.146913580246913,0)" xlink:href="#bd"/><use transform="matrix(0.05061728395061728,0,0,0.05061728395061728,26.27037037037037,0)" xlink:href="#bk"/><use transform="matrix(0.05061728395061728,0,0,0.05061728395061728,35.38148148148148,0)" xlink:href="#bl"/><use transform="matrix(0.05061728395061728,0,0,0.05061728395061728,45.504938271604935,0)" xlink:href="#bm"/></g><g id="h"><use transform="matrix(0.05061728395061728,0,0,0.05061728395061728,0,0)" xlink:href="#bi"/><use transform="matrix(0.05061728395061728,0,0,0.05061728395061728,12.148148148148147,0)" xlink:href="#bd"/><use transform="matrix(0.05061728395061728,0,0,0.05061728395061728,22.2716049382716,0)" xlink:href="#bj"/><use transform="matrix(0.05061728395061728,0,0,0.05061728395061728,26.27037037037037,0)" xlink:href="#bd"/><use transform="matrix(0.05061728395061728,0,0,0.05061728395061728,36.39382716049382,0)" xlink:href="#bl"/><use transform="matrix(0.05061728395061728,0,0,0.05061728395061728,46.517283950617276,0)" xlink:href="#bm"/></g><path d="M212-179c-10-28-35-45-73-45-59 0-87 40-87 99 0 60 29 101 89 101 43 0 62-24 78-52l27 14C228-24 195 4 139 4 59 4 22-46 18-125c-6-104 99-153 187-111 19 9 31 26 39 46" id="bn"/><g id="i"><use transform="matrix(0.05061728395061728,0,0,0.05061728395061728,0,0)" xlink:href="#bn"/><use transform="matrix(0.05061728395061728,0,0,0.05061728395061728,13.109876543209875,0)" xlink:href="#bb"/><use transform="matrix(0.05061728395061728,0,0,0.05061728395061728,23.23333333333333,0)" xlink:href="#ba"/><use transform="matrix(0.05061728395061728,0,0,0.05061728395061728,33.35679012345679,0)" xlink:href="#bm"/></g><path d="M160-131c35 5 61 23 61 61C221 17 115-2 30 0v-248c76 3 177-17 177 60 0 33-19 50-47 57zm-97-11c50-1 110 9 110-42 0-47-63-36-110-37v79zm0 115c55-2 124 14 124-45 0-56-70-42-124-44v89" id="bo"/><path d="M9 0v-24l116-142H16v-24h144v24L44-24h123V0H9zm95-211H68c-13-18-31-30-41-51 32-2 39 20 59 30 19-10 26-32 57-30-9 21-27 33-39 51" id="bp"/><path d="M135-143c-3-34-86-38-87 0 15 53 115 12 119 90S17 21 10-45l28-5c4 36 97 45 98 0-10-56-113-15-118-90-4-57 82-63 122-42 12 7 21 19 24 35zm-28-68H71c-13-18-31-30-41-51 32-2 39 20 59 30 19-10 26-32 57-30-9 21-27 33-39 51" id="bq"/><path d="M34 0v-190h32V0H34zM24-211c8-23 27-35 38-54h36v5l-58 49H24" id="br"/><g id="j"><use transform="matrix(0.05061728395061728,0,0,0.05061728395061728,0,0)" xlink:href="#bo"/><use transform="matrix(0.05061728395061728,0,0,0.05061728395061728,12.148148148148147,0)" xlink:href="#bj"/><use transform="matrix(0.05061728395061728,0,0,0.05061728395061728,16.146913580246913,0)" xlink:href="#bf"/><use transform="matrix(0.05061728395061728,0,0,0.05061728395061728,20.145679012345678,0)" xlink:href="#bp"/><use transform="matrix(0.05061728395061728,0,0,0.05061728395061728,29.25679012345679,0)" xlink:href="#bq"/><use transform="matrix(0.05061728395061728,0,0,0.05061728395061728,38.367901234567896,0)" xlink:href="#br"/></g><g id="k"><use transform="matrix(0.05061728395061728,0,0,0.05061728395061728,0,0)" xlink:href="#aZ"/><use transform="matrix(0.05061728395061728,0,0,0.05061728395061728,10.123456790123456,0)" xlink:href="#bd"/><use transform="matrix(0.05061728395061728,0,0,0.05061728395061728,20.24691358024691,0)" xlink:href="#aZ"/><use transform="matrix(0.05061728395061728,0,0,0.05061728395061728,30.370370370370367,0)" xlink:href="#bf"/><use transform="matrix(0.05061728395061728,0,0,0.05061728395061728,34.36913580246913,0)" xlink:href="#bh"/></g><path d="M194 0L95-120 63-95V0H30v-248h33v124l119-124h40L117-140 236 0h-42" id="bs"/><path d="M232-93c-1 65-40 97-104 97C67 4 28-28 28-90v-158h33c8 89-33 224 67 224 102 0 64-133 71-224h33v155" id="bt"/><g id="l"><use transform="matrix(0.05802469135802469,0,0,0.05802469135802469,0,0)" xlink:href="#bs"/><use transform="matrix(0.05802469135802469,0,0,0.05802469135802469,13.925925925925926,0)" xlink:href="#bt"/><use transform="matrix(0.05802469135802469,0,0,0.05802469135802469,28.95432098765432,0)" xlink:href="#bi"/><use transform="matrix(0.05802469135802469,0,0,0.05802469135802469,42.880246913580244,0)" xlink:href="#aC"/><use transform="matrix(0.05802469135802469,0,0,0.05802469135802469,57.90864197530864,0)" xlink:href="#br"/></g><path d="M30 0v-248h33v221h125V0H30" id="bu"/><path d="M205 0l-28-72H64L36 0H1l101-248h38L239 0h-34zm-38-99l-47-123c-12 45-31 82-46 123h93" id="bv"/><g id="m"><use transform="matrix(0.05802469135802469,0,0,0.05802469135802469,0,0)" xlink:href="#aJ"/><use transform="matrix(0.05802469135802469,0,0,0.05802469135802469,13.925925925925926,0)" xlink:href="#aE"/><use transform="matrix(0.05802469135802469,0,0,0.05802469135802469,31.275308641975307,0)" xlink:href="#bu"/><use transform="matrix(0.05802469135802469,0,0,0.05802469135802469,42.880246913580244,0)" xlink:href="#aF"/><use transform="matrix(0.05802469135802469,0,0,0.05802469135802469,59.12716049382716,0)" xlink:href="#bt"/><use transform="matrix(0.05802469135802469,0,0,0.05802469135802469,74.15555555555555,0)" xlink:href="#aG"/><use transform="matrix(0.05802469135802469,0,0,0.05802469135802469,86.51481481481481,0)" xlink:href="#bv"/></g><g id="o"><use transform="matrix(0.05,0,0,0.05,0,0)" xlink:href="#aK"/><use transform="matrix(0.05,0,0,0.05,10.5,0)" xlink:href="#aK"/><use transform="matrix(0.05,0,0,0.05,21,0)" xlink:href="#aL"/><use transform="matrix(0.05,0,0,0.05,33,0)" xlink:href="#aM"/><use transform="matrix(0.05,0,0,0.05,45.95,0)" xlink:href="#aN"/><use transform="matrix(0.05,0,0,0.05,56.45,0)" xlink:href="#aN"/></g><g id="p"><use transform="matrix(0.05,0,0,0.05,0,0)" xlink:href="#aO"/><use transform="matrix(0.05,0,0,0.05,5,0)" xlink:href="#aP"/></g><path d="M25 0v-261h50V0H25" id="bw"/><path d="M85 4C-2 5 27-109 22-190h50c7 57-23 150 33 157 60-5 35-97 40-157h50l1 190h-47c-2-12 1-28-3-38-12 25-28 42-61 42" id="bx"/><path d="M123 10C108 53 80 86 19 72V37c35 8 53-11 59-39L3-190h52l48 148c12-52 28-100 44-148h51" id="by"/><g id="q"><use transform="matrix(0.05,0,0,0.05,0,0)" xlink:href="#aX"/><use transform="matrix(0.05,0,0,0.05,10,0)" xlink:href="#aS"/><use transform="matrix(0.05,0,0,0.05,26,0)" xlink:href="#bw"/><use transform="matrix(0.05,0,0,0.05,31,0)" xlink:href="#aT"/><use transform="matrix(0.05,0,0,0.05,41.95,0)" xlink:href="#bx"/><use transform="matrix(0.05,0,0,0.05,52.900000000000006,0)" xlink:href="#aU"/><use transform="matrix(0.05,0,0,0.05,62.900000000000006,0)" xlink:href="#by"/></g><path d="M30-248c118-7 216 8 213 122C240-48 200 0 122 0H30v-248zM63-27c89 8 146-16 146-99s-60-101-146-95v194" id="bz"/><path d="M84 4C-5 8 30-112 23-190h32v120c0 31 7 50 39 49 72-2 45-101 50-169h31l1 190h-30c-1-10 1-25-2-33-11 22-28 36-60 37" id="bA"/><g id="r"><use transform="matrix(0.05061728395061728,0,0,0.05061728395061728,0,0)" xlink:href="#bz"/><use transform="matrix(0.05061728395061728,0,0,0.05061728395061728,13.109876543209875,0)" xlink:href="#bm"/><use transform="matrix(0.05061728395061728,0,0,0.05061728395061728,23.23333333333333,0)" xlink:href="#bg"/><use transform="matrix(0.05061728395061728,0,0,0.05061728395061728,28.29506172839506,0)" xlink:href="#bA"/><use transform="matrix(0.05061728395061728,0,0,0.05061728395061728,38.41851851851851,0)" xlink:href="#bc"/></g><path d="M9 0v-24l116-142H16v-24h144v24L44-24h123V0H9" id="bB"/><path d="M114-163C36-179 61-72 57 0H25l-1-190h30c1 12-1 29 2 39 6-27 23-49 58-41v29zm-27-48H51c-13-18-31-30-41-51 32-2 39 20 59 30 19-10 26-32 57-30-9 21-27 33-39 51" id="bC"/><g id="s"><use transform="matrix(0.05061728395061728,0,0,0.05061728395061728,0,0)" xlink:href="#bA"/><use transform="matrix(0.05061728395061728,0,0,0.05061728395061728,10.123456790123456,0)" xlink:href="#bB"/><use transform="matrix(0.05061728395061728,0,0,0.05061728395061728,19.234567901234566,0)" xlink:href="#bm"/><use transform="matrix(0.05061728395061728,0,0,0.05061728395061728,29.358024691358022,0)" xlink:href="#be"/><use transform="matrix(0.05061728395061728,0,0,0.05061728395061728,38.46913580246913,0)" xlink:href="#bC"/><use transform="matrix(0.05061728395061728,0,0,0.05061728395061728,44.49259259259259,0)" xlink:href="#bb"/><use transform="matrix(0.05061728395061728,0,0,0.05061728395061728,54.61604938271604,0)" xlink:href="#ba"/><use transform="matrix(0.05061728395061728,0,0,0.05061728395061728,64.7395061728395,0)" xlink:href="#br"/></g><g id="t"><use transform="matrix(0.05061728395061728,0,0,0.05061728395061728,0,0)" xlink:href="#bh"/><use transform="matrix(0.05061728395061728,0,0,0.05061728395061728,9.11111111111111,0)" xlink:href="#bc"/><use transform="matrix(0.05061728395061728,0,0,0.05061728395061728,24.245679012345676,0)" xlink:href="#bj"/><use transform="matrix(0.05061728395061728,0,0,0.05061728395061728,28.24444444444444,0)" xlink:href="#bd"/><use transform="matrix(0.05061728395061728,0,0,0.05061728395061728,38.367901234567896,0)" xlink:href="#bA"/><use transform="matrix(0.05061728395061728,0,0,0.05061728395061728,48.49135802469135,0)" xlink:href="#be"/><use transform="matrix(0.05061728395061728,0,0,0.05061728395061728,57.602469135802465,0)" xlink:href="#aY"/></g><g id="u"><use transform="matrix(0.05,0,0,0.05,0,0)" xlink:href="#aJ"/><use transform="matrix(0.05,0,0,0.05,12,0)" xlink:href="#bg"/><use transform="matrix(0.05,0,0,0.05,17,0)" xlink:href="#bm"/><use transform="matrix(0.05,0,0,0.05,27,0)" xlink:href="#be"/></g><path d="M115-194c53 0 69 39 70 98 0 66-23 100-70 100C84 3 66-7 56-30L54 0H23l1-261h32v101c10-23 28-34 59-34zm-8 174c40 0 45-34 45-75 0-40-5-75-45-74-42 0-51 32-51 76 0 43 10 73 51 73" id="bD"/><g id="v"><use transform="matrix(0.05,0,0,0.05,0,0)" xlink:href="#aF"/><use transform="matrix(0.05,0,0,0.05,14,0)" xlink:href="#bD"/><use transform="matrix(0.05,0,0,0.05,24,0)" xlink:href="#bh"/><use transform="matrix(0.05,0,0,0.05,33,0)" xlink:href="#bm"/><use transform="matrix(0.05,0,0,0.05,43,0)" xlink:href="#bl"/></g><g id="w"><use transform="matrix(0.05,0,0,0.05,0,0)" xlink:href="#bh"/><use transform="matrix(0.05,0,0,0.05,9,0)" xlink:href="#bc"/><use transform="matrix(0.05,0,0,0.05,23.950000000000003,0)" xlink:href="#bj"/><use transform="matrix(0.05,0,0,0.05,27.900000000000002,0)" xlink:href="#bd"/><use transform="matrix(0.05,0,0,0.05,37.900000000000006,0)" xlink:href="#bA"/><use transform="matrix(0.05,0,0,0.05,47.900000000000006,0)" xlink:href="#be"/><use transform="matrix(0.05,0,0,0.05,56.900000000000006,0)" xlink:href="#aY"/></g><path d="M209 0H11v-25l151-195H24v-28h176v25L50-27h159V0" id="bE"/><path d="M142-269h-36c-13-16-32-26-41-46 30-2 39 17 59 25 19-9 27-28 57-25-8 20-27 29-39 46zM30 0v-248h187v28H63v79h144v27H63v87h162V0H30" id="bF"/><g id="x"><use transform="matrix(0.05802469135802466,0,0,0.05802469135802466,0,0)" xlink:href="#bE"/><use transform="matrix(0.05802469135802466,0,0,0.05802469135802466,12.7074074074074,0)" xlink:href="#bv"/><use transform="matrix(0.05802469135802466,0,0,0.05802469135802466,26.63333333333332,0)" xlink:href="#aE"/><use transform="matrix(0.05802469135802466,0,0,0.05802469135802466,43.98271604938269,0)" xlink:href="#bF"/><use transform="matrix(0.05802469135802466,0,0,0.05802469135802466,57.908641975308605,0)" xlink:href="#aJ"/><use transform="matrix(0.05802469135802466,0,0,0.05802469135802466,71.83456790123452,0)" xlink:href="#aI"/><use transform="matrix(0.05802469135802466,0,0,0.05802469135802466,84.54197530864192,0)" xlink:href="#aC"/><use transform="matrix(0.05802469135802466,0,0,0.05802469135802466,99.57037037037031,0)" xlink:href="#bv"/><use transform="matrix(0.05802469135802466,0,0,0.05802469135802466,113.49629629629624,0)" xlink:href="#aC"/><use transform="matrix(0.05802469135802466,0,0,0.05802469135802466,128.52469135802463,0)" xlink:href="#aD"/><use transform="matrix(0.05802469135802466,0,0,0.05802469135802466,142.45061728395055,0)" xlink:href="#bn"/></g><g id="y"><use transform="matrix(0.05061728395061727,0,0,0.05061728395061727,0,0)" xlink:href="#aK"/><use transform="matrix(0.05061728395061727,0,0,0.05061728395061727,10.629629629629626,0)" xlink:href="#aK"/><use transform="matrix(0.05061728395061727,0,0,0.05061728395061727,21.259259259259252,0)" xlink:href="#aL"/><use transform="matrix(0.05061728395061727,0,0,0.05061728395061727,33.4074074074074,0)" xlink:href="#aM"/><use transform="matrix(0.05061728395061727,0,0,0.05061728395061727,46.51728395061727,0)" xlink:href="#aN"/><use transform="matrix(0.05061728395061727,0,0,0.05061728395061727,57.1469135802469,0)" xlink:href="#aN"/></g><g id="z"><use transform="matrix(0.05061728395061727,0,0,0.05061728395061727,0,0)" xlink:href="#aO"/><use transform="matrix(0.05061728395061727,0,0,0.05061728395061727,5.061728395061727,0)" xlink:href="#aP"/></g><path d="M12 0v-35l95-120H19v-35h142v35L67-36h103V0H12" id="bG"/><path d="M133-34C117-15 103 5 69 4 32 3 11-16 11-54c-1-60 55-63 116-61 1-26-3-47-28-47-18 1-26 9-28 27l-52-2c7-38 36-58 82-57s74 22 75 68l1 82c-1 14 12 18 25 15v27c-30 8-71 5-69-32zm-48 3c29 0 43-24 42-57-32 0-66-3-65 30 0 17 8 27 23 27" id="bH"/><path d="M185-48c-13 30-37 53-82 52C43 2 14-33 14-96s30-98 90-98c62 0 83 45 84 108H66c0 31 8 55 39 56 18 0 30-7 34-22zm-45-69c5-46-57-63-70-21-2 6-4 13-4 21h74zm-16-91H83l-45-56v-5h28c13 11 24 24 38 34l36-34h28c-9 26-31 39-44 61" id="bI"/><path d="M190-63c-7 42-38 67-86 67-59 0-84-38-90-98-12-110 154-137 174-36l-49 2c-2-19-15-32-35-32-30 0-35 28-38 64-6 74 65 87 74 30" id="bJ"/><g id="A"><use transform="matrix(0.05061728395061727,0,0,0.05061728395061727,0,0)" xlink:href="#bG"/><use transform="matrix(0.05061728395061727,0,0,0.05061728395061727,9.111111111111109,0)" xlink:href="#bH"/><use transform="matrix(0.05061728395061727,0,0,0.05061728395061727,19.234567901234563,0)" xlink:href="#aS"/><use transform="matrix(0.05061728395061727,0,0,0.05061728395061727,35.43209876543209,0)" xlink:href="#bI"/><use transform="matrix(0.05061728395061727,0,0,0.05061728395061727,45.55555555555554,0)" xlink:href="#aX"/><use transform="matrix(0.05061728395061727,0,0,0.05061728395061727,55.679012345679,0)" xlink:href="#aW"/><use transform="matrix(0.05061728395061727,0,0,0.05061728395061727,61.70246913580245,0)" xlink:href="#aQ"/><use transform="matrix(0.05061728395061727,0,0,0.05061728395061727,72.78765432098763,0)" xlink:href="#bH"/><use transform="matrix(0.05061728395061727,0,0,0.05061728395061727,82.91111111111108,0)" xlink:href="#aQ"/><use transform="matrix(0.05061728395061727,0,0,0.05061728395061727,93.99629629629626,0)" xlink:href="#bJ"/><use transform="matrix(0.05061728395061727,0,0,0.05061728395061727,104.11975308641972,0)" xlink:href="#aR"/></g><path d="M153-248C145-148 188 4 80 4 36 3 13-21 6-62l32-5c4 25 16 42 43 43 27 0 39-20 39-49v-147H72v-28h81" id="bK"/><path d="M100-194c63 0 86 42 84 106H49c0 40 14 67 53 68 26 1 43-12 49-29l28 8c-11 28-37 45-77 45C44 4 14-33 15-96c1-61 26-98 85-98zm52 81c6-60-76-77-97-28-3 7-6 17-6 28h103zm-74-98c8-23 27-35 38-54h36v5l-58 49H78" id="bL"/><g id="B"><use transform="matrix(0.05061728395061727,0,0,0.05061728395061727,0,0)" xlink:href="#bK"/><use transform="matrix(0.05061728395061727,0,0,0.05061728395061727,9.111111111111109,0)" xlink:href="#bc"/><use transform="matrix(0.05061728395061727,0,0,0.05061728395061727,24.245679012345676,0)" xlink:href="#bL"/><use transform="matrix(0.05061728395061727,0,0,0.05061728395061727,34.36913580246913,0)" xlink:href="#ba"/><use transform="matrix(0.05061728395061727,0,0,0.05061728395061727,44.49259259259259,0)" xlink:href="#bd"/></g><path d="M141-36C126-15 110 5 73 4 37 3 15-17 15-53c-1-64 63-63 125-63 3-35-9-54-41-54-24 1-41 7-42 31l-33-3c5-37 33-52 76-52 45 0 72 20 72 64v82c-1 20 7 32 28 27v20c-31 9-61-2-59-35zM48-53c0 20 12 33 32 33 41-3 63-29 60-74-43 2-92-5-92 41zm25-158c8-23 27-35 38-54h36v5l-58 49H73" id="bM"/><g id="C"><use transform="matrix(0.05061728395061728,0,0,0.05061728395061728,0,0)" xlink:href="#ba"/><use transform="matrix(0.05061728395061728,0,0,0.05061728395061728,10.123456790123456,0)" xlink:href="#bM"/><use transform="matrix(0.05061728395061728,0,0,0.05061728395061728,20.24691358024691,0)" xlink:href="#bh"/><use transform="matrix(0.05061728395061728,0,0,0.05061728395061728,29.358024691358022,0)" xlink:href="#bg"/><use transform="matrix(0.05061728395061728,0,0,0.05061728395061728,34.419753086419746,0)" xlink:href="#bA"/><use transform="matrix(0.05061728395061728,0,0,0.05061728395061728,44.5432098765432,0)" xlink:href="#aZ"/><use transform="matrix(0.05061728395061728,0,0,0.05061728395061728,54.66666666666666,0)" xlink:href="#bA"/></g><path d="M179-190L93 31C79 59 56 82 12 73V49c39 6 53-20 64-50L1-190h34L92-34l54-156h33zM63-211c8-23 27-35 38-54h36v5l-58 49H63" id="bN"/><path d="M100-194c63 0 86 42 84 106H49c0 40 14 67 53 68 26 1 43-12 49-29l28 8c-11 28-37 45-77 45C44 4 14-33 15-96c1-61 26-98 85-98zm52 81c6-60-76-77-97-28-3 7-6 17-6 28h103zm-34-98H82c-13-18-31-30-41-51 32-2 39 20 59 30 19-10 26-32 57-30-9 21-27 33-39 51" id="bO"/><path d="M85-194c31 0 48 13 60 33l-1-100h32l1 261h-30c-2-10 0-23-3-31C134-8 116 4 85 4 32 4 16-35 15-94c0-66 23-100 70-100zm9 24c-40 0-46 34-46 75 0 40 6 74 45 74 42 0 51-32 51-76 0-42-9-74-50-73" id="bP"/><g id="D"><use transform="matrix(0.05061728395061728,0,0,0.05061728395061728,0,0)" xlink:href="#be"/><use transform="matrix(0.05061728395061728,0,0,0.05061728395061728,9.11111111111111,0)" xlink:href="#bN"/><use transform="matrix(0.05061728395061728,0,0,0.05061728395061728,18.22222222222222,0)" xlink:href="#aZ"/><use transform="matrix(0.05061728395061728,0,0,0.05061728395061728,28.345679012345677,0)" xlink:href="#bd"/><use transform="matrix(0.05061728395061728,0,0,0.05061728395061728,38.46913580246913,0)" xlink:href="#be"/><use transform="matrix(0.05061728395061728,0,0,0.05061728395061728,47.58024691358024,0)" xlink:href="#bO"/><use transform="matrix(0.05061728395061728,0,0,0.05061728395061728,57.703703703703695,0)" xlink:href="#bP"/><use transform="matrix(0.05061728395061728,0,0,0.05061728395061728,67.82716049382715,0)" xlink:href="#bf"/></g><g id="E"><use transform="matrix(0.05061728395061728,0,0,0.05061728395061728,0,0)" xlink:href="#bi"/><use transform="matrix(0.05061728395061728,0,0,0.05061728395061728,12.148148148148147,0)" xlink:href="#bd"/><use transform="matrix(0.05061728395061728,0,0,0.05061728395061728,22.2716049382716,0)" xlink:href="#bB"/><use transform="matrix(0.05061728395061728,0,0,0.05061728395061728,31.38271604938271,0)" xlink:href="#bf"/><use transform="matrix(0.05061728395061728,0,0,0.05061728395061728,35.38148148148148,0)" xlink:href="#bk"/><use transform="matrix(0.05061728395061728,0,0,0.05061728395061728,44.49259259259259,0)" xlink:href="#bb"/></g><path d="M132-269H96c-13-16-32-26-41-46 30-2 39 17 59 25 19-9 27-27 57-25-8 20-27 29-39 46zM209 0H11v-25l151-195H24v-28h176v25L50-27h159V0" id="bQ"/><path d="M96-269c9-18 26-28 38-43h37v5l-55 38H96zM205 0l-28-72H64L36 0H1l101-248h38L239 0h-34zm-38-99l-47-123c-12 45-31 82-46 123h93" id="bR"/><g id="F"><use transform="matrix(0.05802469135802468,0,0,0.05802469135802468,0,0)" xlink:href="#bQ"/><use transform="matrix(0.05802469135802468,0,0,0.05802469135802468,12.707407407407405,0)" xlink:href="#bR"/><use transform="matrix(0.05802469135802468,0,0,0.05802469135802468,26.63333333333333,0)" xlink:href="#bz"/><use transform="matrix(0.05802469135802468,0,0,0.05802469135802468,41.66172839506172,0)" xlink:href="#aF"/><use transform="matrix(0.05802469135802468,0,0,0.05802469135802468,57.90864197530863,0)" xlink:href="#aJ"/><use transform="matrix(0.05802469135802468,0,0,0.05802469135802468,71.83456790123455,0)" xlink:href="#aI"/></g><use transform="matrix(0.05802469135802468,0,0,0.05802469135802468,0,0)" xlink:href="#aF" id="G"/><path d="M233-177c-1 41-23 64-60 70L243 0h-38l-65-103H63V0H30v-248c88 3 205-21 203 71zM63-129c60-2 137 13 137-47 0-61-80-42-137-45v92" id="bS"/><path d="M197 0v-115H63V0H30v-248h33v105h134v-105h34V0h-34" id="bT"/><path d="M25-269c9-18 26-28 38-43h36v5l-54 38H25zM33 0v-248h34V0H33" id="bU"/><g id="H"><use transform="matrix(0.05802469135802468,0,0,0.05802469135802468,0,0)" xlink:href="#bi"/><use transform="matrix(0.05802469135802468,0,0,0.05802469135802468,13.925925925925924,0)" xlink:href="#bS"/><use transform="matrix(0.05802469135802468,0,0,0.05802469135802468,28.954320987654317,0)" xlink:href="#aF"/><use transform="matrix(0.05802469135802468,0,0,0.05802469135802468,45.201234567901224,0)" xlink:href="#bT"/><use transform="matrix(0.05802469135802468,0,0,0.05802469135802468,60.229629629629606,0)" xlink:href="#bu"/><use transform="matrix(0.05802469135802468,0,0,0.05802469135802468,71.83456790123455,0)" xlink:href="#bU"/><use transform="matrix(0.05802469135802468,0,0,0.05802469135802468,77.63703703703702,0)" xlink:href="#bz"/><use transform="matrix(0.05802469135802468,0,0,0.05802469135802468,92.66543209876541,0)" xlink:href="#bs"/><use transform="matrix(0.05802469135802468,0,0,0.05802469135802468,106.59135802469133,0)" xlink:href="#bt"/></g><path d="M12 0v-35l95-120H19v-35h142v35L67-36h103V0H12zm99-208H70l-45-56v-5h28c13 11 24 24 38 34l36-34h28c-9 26-31 39-44 61" id="bV"/><path d="M132-34C116-15 102 5 68 4 31 3 10-16 10-54c-1-60 55-63 116-61 1-26-3-47-28-47-18 1-26 9-28 27l-52-2c7-38 36-58 82-57s74 22 75 68l1 82c-1 14 12 18 25 15v27c-30 8-71 5-69-32zm-48 3c29 0 43-24 42-57-32 0-66-3-65 30 0 17 8 27 23 27zM66-208v-5l45-51h45v8l-60 48H66" id="bW"/><path d="M88-194c31-1 46 15 58 34l-1-101h50l1 261h-48c-2-10 0-23-3-31C134-8 116 4 84 4 32 4 16-41 15-95c0-56 19-97 73-99zm17 164c33 0 40-30 41-66 1-37-9-64-41-64s-38 30-39 65c0 43 13 65 39 65" id="bX"/><g id="I"><use transform="matrix(0.05061728395061728,0,0,0.05061728395061728,0,0)" xlink:href="#bV"/><use transform="matrix(0.05061728395061728,0,0,0.05061728395061728,9.11111111111111,0)" xlink:href="#bW"/><use transform="matrix(0.05061728395061728,0,0,0.05061728395061728,19.234567901234566,0)" xlink:href="#bX"/><use transform="matrix(0.05061728395061728,0,0,0.05061728395061728,30.319753086419748,0)" xlink:href="#aT"/><use transform="matrix(0.05061728395061728,0,0,0.05061728395061728,41.404938271604934,0)" xlink:href="#aX"/><use transform="matrix(0.05061728395061728,0,0,0.05061728395061728,51.52839506172839,0)" xlink:href="#aW"/><use transform="matrix(0.05061728395061728,0,0,0.05061728395061728,57.55185185185184,0)" xlink:href="#aV"/></g><g id="J"><use transform="matrix(0.05061728395061728,0,0,0.05061728395061728,0,0)" xlink:href="#bi"/><use transform="matrix(0.05061728395061728,0,0,0.05061728395061728,12.148148148148147,0)" xlink:href="#bd"/><use transform="matrix(0.05061728395061728,0,0,0.05061728395061728,22.2716049382716,0)" xlink:href="#bp"/><use transform="matrix(0.05061728395061728,0,0,0.05061728395061728,31.38271604938271,0)" xlink:href="#bm"/><use transform="matrix(0.05061728395061728,0,0,0.05061728395061728,41.50617283950616,0)" xlink:href="#bP"/><use transform="matrix(0.05061728395061728,0,0,0.05061728395061728,51.62962962962962,0)" xlink:href="#bd"/><use transform="matrix(0.05061728395061728,0,0,0.05061728395061728,61.75308641975308,0)" xlink:href="#be"/><use transform="matrix(0.05061728395061728,0,0,0.05061728395061728,70.86419753086419,0)" xlink:href="#bm"/><use transform="matrix(0.05061728395061728,0,0,0.05061728395061728,80.98765432098764,0)" xlink:href="#ba"/><use transform="matrix(0.05061728395061728,0,0,0.05061728395061728,91.1111111111111,0)" xlink:href="#bL"/></g><g id="K"><use transform="matrix(0.05061728395061728,0,0,0.05061728395061728,0,0)" xlink:href="#bP"/><use transform="matrix(0.05061728395061728,0,0,0.05061728395061728,10.123456790123456,0)" xlink:href="#bm"/><use transform="matrix(0.05061728395061728,0,0,0.05061728395061728,20.24691358024691,0)" xlink:href="#bg"/><use transform="matrix(0.05061728395061728,0,0,0.05061728395061728,25.30864197530864,0)" xlink:href="#bA"/><use transform="matrix(0.05061728395061728,0,0,0.05061728395061728,35.432098765432094,0)" xlink:href="#bc"/></g><use transform="matrix(0.05061728395061728,0,0,0.05061728395061728,0,0)" xlink:href="#bm" id="L"/><path d="M96-169c-40 0-48 33-48 73s9 75 48 75c24 0 41-14 43-38l32 2c-6 37-31 61-74 61-59 0-76-41-82-99-10-93 101-131 147-64 4 7 5 14 7 22l-32 3c-4-21-16-35-41-35zm19-42H79c-13-18-31-30-41-51 32-2 39 20 59 30 19-10 26-32 57-30-9 21-27 33-39 51" id="bY"/><g id="M"><use transform="matrix(0.05061728395061728,0,0,0.05061728395061728,0,0)" xlink:href="#bY"/><use transform="matrix(0.05061728395061728,0,0,0.05061728395061728,9.11111111111111,0)" xlink:href="#bm"/><use transform="matrix(0.05061728395061728,0,0,0.05061728395061728,19.234567901234566,0)" xlink:href="#bh"/></g><path d="M114-163C36-179 61-72 57 0H25l-1-190h30c1 12-1 29 2 39 6-27 23-49 58-41v29" id="bZ"/><path d="M143 0L79-87 56-68V0H24v-261h32v163l83-92h37l-77 82L181 0h-38" id="ca"/><g id="N"><use transform="matrix(0.05061728395061728,0,0,0.05061728395061728,0,0)" xlink:href="#aZ"/><use transform="matrix(0.05061728395061728,0,0,0.05061728395061728,10.123456790123456,0)" xlink:href="#bZ"/><use transform="matrix(0.05061728395061728,0,0,0.05061728395061728,16.14691358024691,0)" xlink:href="#bd"/><use transform="matrix(0.05061728395061728,0,0,0.05061728395061728,26.27037037037037,0)" xlink:href="#bl"/><use transform="matrix(0.05061728395061728,0,0,0.05061728395061728,36.39382716049382,0)" xlink:href="#bj"/><use transform="matrix(0.05061728395061728,0,0,0.05061728395061728,40.392592592592585,0)" xlink:href="#br"/><use transform="matrix(0.05061728395061728,0,0,0.05061728395061728,45.45432098765431,0)" xlink:href="#bP"/><use transform="matrix(0.05061728395061728,0,0,0.05061728395061728,55.57777777777777,0)" xlink:href="#ca"/><use transform="matrix(0.05061728395061728,0,0,0.05061728395061728,64.68888888888888,0)" xlink:href="#aY"/></g><g id="O"><use transform="matrix(0.05061728395061728,0,0,0.05061728395061728,0,0)" xlink:href="#aZ"/><use transform="matrix(0.05061728395061728,0,0,0.05061728395061728,10.123456790123456,0)" xlink:href="#bd"/><use transform="matrix(0.05061728395061728,0,0,0.05061728395061728,20.24691358024691,0)" xlink:href="#bP"/><use transform="matrix(0.05061728395061728,0,0,0.05061728395061728,30.370370370370367,0)" xlink:href="#bM"/><use transform="matrix(0.05061728395061728,0,0,0.05061728395061728,40.49382716049382,0)" xlink:href="#ba"/><use transform="matrix(0.05061728395061728,0,0,0.05061728395061728,50.61728395061728,0)" xlink:href="#br"/></g><g id="P"><use transform="matrix(0.05061728395061728,0,0,0.05061728395061728,0,0)" xlink:href="#bp"/><use transform="matrix(0.05061728395061728,0,0,0.05061728395061728,9.11111111111111,0)" xlink:href="#bM"/><use transform="matrix(0.05061728395061728,0,0,0.05061728395061728,19.234567901234566,0)" xlink:href="#bP"/><use transform="matrix(0.05061728395061728,0,0,0.05061728395061728,29.358024691358022,0)" xlink:href="#bd"/><use transform="matrix(0.05061728395061728,0,0,0.05061728395061728,39.48148148148148,0)" xlink:href="#bh"/><use transform="matrix(0.05061728395061728,0,0,0.05061728395061728,48.592592592592595,0)" xlink:href="#bg"/><use transform="matrix(0.05061728395061728,0,0,0.05061728395061728,53.65432098765433,0)" xlink:href="#bf"/></g><path d="M103-251c84 0 111 97 45 133-19 10-37 24-39 52H78c0-63 77-55 77-114 0-30-21-42-52-43-32 0-53 17-56 46l-32-2c7-45 34-72 88-72zM77 0v-35h34V0H77" id="cb"/><g id="Q"><use transform="matrix(0.05061728395061728,0,0,0.05061728395061728,0,0)" xlink:href="#bi"/><use transform="matrix(0.05061728395061728,0,0,0.05061728395061728,12.148148148148147,0)" xlink:href="#bZ"/><use transform="matrix(0.05061728395061728,0,0,0.05061728395061728,18.171604938271603,0)" xlink:href="#bd"/><use transform="matrix(0.05061728395061728,0,0,0.05061728395061728,28.29506172839506,0)" xlink:href="#bD"/><use transform="matrix(0.05061728395061728,0,0,0.05061728395061728,38.41851851851851,0)" xlink:href="#bO"/><use transform="matrix(0.05061728395061728,0,0,0.05061728395061728,48.541975308641966,0)" xlink:href="#bl"/><use transform="matrix(0.05061728395061728,0,0,0.05061728395061728,58.66543209876543,0)" xlink:href="#bj"/><use transform="matrix(0.05061728395061728,0,0,0.05061728395061728,62.66419753086419,0)" xlink:href="#bm"/><use transform="matrix(0.05061728395061728,0,0,0.05061728395061728,72.78765432098764,0)" xlink:href="#cb"/></g><g id="R"><use transform="matrix(0.05802469135802469,0,0,0.05802469135802469,0,0)" xlink:href="#bE"/><use transform="matrix(0.05802469135802469,0,0,0.05802469135802469,12.707407407407407,0)" xlink:href="#bR"/><use transform="matrix(0.05802469135802469,0,0,0.05802469135802469,26.633333333333333,0)" xlink:href="#bs"/><use transform="matrix(0.05802469135802469,0,0,0.05802469135802469,40.55925925925926,0)" xlink:href="#bv"/><use transform="matrix(0.05802469135802469,0,0,0.05802469135802469,54.48518518518518,0)" xlink:href="#bE"/><use transform="matrix(0.05802469135802469,0,0,0.05802469135802469,67.19259259259259,0)" xlink:href="#aC"/><use transform="matrix(0.05802469135802469,0,0,0.05802469135802469,82.22098765432098,0)" xlink:href="#bU"/><use transform="matrix(0.05802469135802469,0,0,0.05802469135802469,88.02345679012345,0)" xlink:href="#bs"/></g><use transform="matrix(0.05802469135802469,0,0,0.05802469135802469,0,0)" xlink:href="#aJ" id="S"/><path d="M140-269h-36c-13-16-32-26-41-46 30-2 39 17 59 25 19-9 27-27 57-25-8 20-27 29-39 46zm93 92c-1 41-23 64-60 70L243 0h-38l-65-103H63V0H30v-248c88 3 205-21 203 71zM63-129c60-2 137 13 137-47 0-61-80-42-137-45v92" id="cc"/><path d="M94-269c9-18 26-28 38-43h37v5l-55 38H94zm43 166V0h-34v-103L8-248h37l75 118 75-118h37" id="cd"/><g id="T"><use transform="matrix(0.05802469135802469,0,0,0.05802469135802469,0,0)" xlink:href="#cc"/><use transform="matrix(0.05802469135802469,0,0,0.05802469135802469,15.028395061728395,0)" xlink:href="#bR"/><use transform="matrix(0.05802469135802469,0,0,0.05802469135802469,28.95432098765432,0)" xlink:href="#bz"/><use transform="matrix(0.05802469135802469,0,0,0.05802469135802469,43.98271604938272,0)" xlink:href="#aC"/><use transform="matrix(0.05802469135802469,0,0,0.05802469135802469,59.01111111111111,0)" xlink:href="#cd"/><use transform="matrix(0.05802469135802469,0,0,0.05802469135802469,72.93703703703704,0)" xlink:href="#aE"/></g><path d="M99-269c9-18 26-28 38-43h37v5l-55 38H99zM232-93c-1 65-40 97-104 97C67 4 28-28 28-90v-158h33c8 89-33 224 67 224 102 0 64-133 71-224h33v155" id="ce"/><path d="M158-269h-36c-13-16-32-26-41-46 30-2 39 17 59 25 19-9 27-27 57-25-8 20-27 29-39 46zm54 90c-10-28-35-45-73-45-59 0-87 40-87 99 0 60 29 101 89 101 43 0 62-24 78-52l27 14C228-24 195 4 139 4 59 4 22-46 18-125c-6-104 99-153 187-111 19 9 31 26 39 46" id="cf"/><g id="U"><use transform="matrix(0.05802469135802469,0,0,0.05802469135802469,0,0)" xlink:href="#ce"/><use transform="matrix(0.05802469135802469,0,0,0.05802469135802469,15.028395061728395,0)" xlink:href="#cf"/><use transform="matrix(0.05802469135802469,0,0,0.05802469135802469,30.05679012345679,0)" xlink:href="#aI"/><use transform="matrix(0.05802469135802469,0,0,0.05802469135802469,42.764197530864195,0)" xlink:href="#aD"/><use transform="matrix(0.05802469135802469,0,0,0.05802469135802469,56.69012345679012,0)" xlink:href="#aE"/></g><g id="V"><use transform="matrix(0.05,0,0,0.05,0,0)" xlink:href="#bv"/><use transform="matrix(0.05,0,0,0.05,12,0)" xlink:href="#bP"/><use transform="matrix(0.05,0,0,0.05,22,0)" xlink:href="#bZ"/><use transform="matrix(0.05,0,0,0.05,27.950000000000003,0)" xlink:href="#bb"/><use transform="matrix(0.05,0,0,0.05,37.95,0)" xlink:href="#bh"/><use transform="matrix(0.05,0,0,0.05,46.95,0)" xlink:href="#bm"/></g><path d="M177-190C167-65 218 103 67 71c-23-6-38-20-44-43l32-5c15 47 100 32 89-28v-30C133-14 115 1 83 1 29 1 15-40 15-95c0-56 16-97 71-98 29-1 48 16 59 35 1-10 0-23 2-32h30zM94-22c36 0 50-32 50-73 0-42-14-75-50-75-39 0-46 34-46 75s6 73 46 73" id="cg"/><g id="W"><use transform="matrix(0.05,0,0,0.05,0,0)" xlink:href="#bs"/><use transform="matrix(0.05,0,0,0.05,12,0)" xlink:href="#bm"/><use transform="matrix(0.05,0,0,0.05,22,0)" xlink:href="#bg"/><use transform="matrix(0.05,0,0,0.05,27,0)" xlink:href="#bb"/><use transform="matrix(0.05,0,0,0.05,37,0)" xlink:href="#cg"/><use transform="matrix(0.05,0,0,0.05,47,0)" xlink:href="#bd"/><use transform="matrix(0.05,0,0,0.05,57,0)" xlink:href="#bZ"/><use transform="matrix(0.05,0,0,0.05,62.95,0)" xlink:href="#bf"/><use transform="matrix(0.05,0,0,0.05,66.9,0)" xlink:href="#bb"/></g><g id="X"><use transform="matrix(0.05,0,0,0.05,0,0)" xlink:href="#bB"/><use transform="matrix(0.05,0,0,0.05,9,0)" xlink:href="#bM"/><use transform="matrix(0.05,0,0,0.05,19,0)" xlink:href="#ca"/><use transform="matrix(0.05,0,0,0.05,28,0)" xlink:href="#bm"/><use transform="matrix(0.05,0,0,0.05,38,0)" xlink:href="#bB"/><use transform="matrix(0.05,0,0,0.05,47,0)" xlink:href="#ba"/><use transform="matrix(0.05,0,0,0.05,57,0)" xlink:href="#br"/><use transform="matrix(0.05,0,0,0.05,62,0)" xlink:href="#ca"/><use transform="matrix(0.05,0,0,0.05,71,0)" xlink:href="#bm"/></g><g id="Y"><use transform="matrix(0.05802469135802469,0,0,0.05802469135802469,0,0)" xlink:href="#bE"/><use transform="matrix(0.05802469135802469,0,0,0.05802469135802469,12.707407407407407,0)" xlink:href="#bR"/><use transform="matrix(0.05802469135802469,0,0,0.05802469135802469,26.633333333333333,0)" xlink:href="#bs"/><use transform="matrix(0.05802469135802469,0,0,0.05802469135802469,40.55925925925926,0)" xlink:href="#bv"/><use transform="matrix(0.05802469135802469,0,0,0.05802469135802469,54.48518518518518,0)" xlink:href="#bE"/><use transform="matrix(0.05802469135802469,0,0,0.05802469135802469,67.19259259259259,0)" xlink:href="#aC"/><use transform="matrix(0.05802469135802469,0,0,0.05802469135802469,82.22098765432098,0)" xlink:href="#bU"/><use transform="matrix(0.05802469135802469,0,0,0.05802469135802469,88.02345679012345,0)" xlink:href="#bs"/></g><path d="M147 0L96-86 75-71V0H25v-261h50v150l67-79h53l-66 74L201 0h-54" id="ch"/><path d="M25 0v-190h50V0H25zm-5-208v-5l45-51h45v8l-60 48H20" id="ci"/><g id="Z"><use transform="matrix(0.05061728395061728,0,0,0.05061728395061728,0,0)" xlink:href="#bG"/><use transform="matrix(0.05061728395061728,0,0,0.05061728395061728,9.11111111111111,0)" xlink:href="#bW"/><use transform="matrix(0.05061728395061728,0,0,0.05061728395061728,19.234567901234566,0)" xlink:href="#ch"/><use transform="matrix(0.05061728395061728,0,0,0.05061728395061728,29.358024691358022,0)" xlink:href="#bH"/><use transform="matrix(0.05061728395061728,0,0,0.05061728395061728,39.48148148148148,0)" xlink:href="#bG"/><use transform="matrix(0.05061728395061728,0,0,0.05061728395061728,48.592592592592595,0)" xlink:href="#aQ"/><use transform="matrix(0.05061728395061728,0,0,0.05061728395061728,59.677777777777784,0)" xlink:href="#ci"/><use transform="matrix(0.05061728395061728,0,0,0.05061728395061728,64.7395061728395,0)" xlink:href="#ch"/><use transform="matrix(0.05061728395061728,0,0,0.05061728395061728,74.86296296296295,0)" xlink:href="#bH"/></g><g id="aa"><use transform="matrix(0.05061728395061728,0,0,0.05061728395061728,0,0)" xlink:href="#bK"/><use transform="matrix(0.05061728395061728,0,0,0.05061728395061728,9.11111111111111,0)" xlink:href="#bc"/><use transform="matrix(0.05061728395061728,0,0,0.05061728395061728,24.245679012345676,0)" xlink:href="#bL"/><use transform="matrix(0.05061728395061728,0,0,0.05061728395061728,34.36913580246913,0)" xlink:href="#ba"/><use transform="matrix(0.05061728395061728,0,0,0.05061728395061728,44.49259259259259,0)" xlink:href="#bd"/></g><g id="ab"><use transform="matrix(0.05061728395061728,0,0,0.05061728395061728,0,0)" xlink:href="#aD"/><use transform="matrix(0.05061728395061728,0,0,0.05061728395061728,12.148148148148147,0)" xlink:href="#bc"/><use transform="matrix(0.05061728395061728,0,0,0.05061728395061728,27.282716049382714,0)" xlink:href="#bm"/><use transform="matrix(0.05061728395061728,0,0,0.05061728395061728,37.40617283950617,0)" xlink:href="#bf"/><use transform="matrix(0.05061728395061728,0,0,0.05061728395061728,41.404938271604934,0)" xlink:href="#bj"/></g><path d="M101-234c-31-9-42 10-38 44h38v23H63V0H32v-167H5v-23h27c-7-52 17-82 69-68v24" id="cj"/><g id="ac"><use transform="matrix(0.05061728395061728,0,0,0.05061728395061728,0,0)" xlink:href="#aI"/><use transform="matrix(0.05061728395061728,0,0,0.05061728395061728,9.060493827160492,0)" xlink:href="#bb"/><use transform="matrix(0.05061728395061728,0,0,0.05061728395061728,19.183950617283948,0)" xlink:href="#bj"/><use transform="matrix(0.05061728395061728,0,0,0.05061728395061728,23.182716049382712,0)" xlink:href="#bb"/><use transform="matrix(0.05061728395061728,0,0,0.05061728395061728,33.30617283950617,0)" xlink:href="#cj"/><use transform="matrix(0.05061728395061728,0,0,0.05061728395061728,38.367901234567896,0)" xlink:href="#bd"/><use transform="matrix(0.05061728395061728,0,0,0.05061728395061728,48.49135802469135,0)" xlink:href="#ba"/><use transform="matrix(0.05061728395061728,0,0,0.05061728395061728,58.61481481481481,0)" xlink:href="#ba"/><use transform="matrix(0.05061728395061728,0,0,0.05061728395061728,68.73827160493826,0)" xlink:href="#br"/></g><g id="ad"><use transform="matrix(0.05061728395061728,0,0,0.05061728395061728,0,0)" xlink:href="#bY"/><use transform="matrix(0.05061728395061728,0,0,0.05061728395061728,9.11111111111111,0)" xlink:href="#br"/><use transform="matrix(0.05061728395061728,0,0,0.05061728395061728,14.172839506172838,0)" xlink:href="#bh"/><use transform="matrix(0.05061728395061728,0,0,0.05061728395061728,23.28395061728395,0)" xlink:href="#bj"/><use transform="matrix(0.05061728395061728,0,0,0.05061728395061728,27.282716049382714,0)" xlink:href="#bd"/></g><g id="ae"><use transform="matrix(0.05,0,0,0.05,0,0)" xlink:href="#bu"/><use transform="matrix(0.05,0,0,0.05,10,0)" xlink:href="#bd"/><use transform="matrix(0.05,0,0,0.05,20,0)" xlink:href="#cg"/><use transform="matrix(0.05,0,0,0.05,30,0)" xlink:href="#bf"/><use transform="matrix(0.05,0,0,0.05,33.95,0)" xlink:href="#ba"/></g><g id="af"><use transform="matrix(0.05,0,0,0.05,0,0)" xlink:href="#bT"/><use transform="matrix(0.05,0,0,0.05,12.950000000000001,0)" xlink:href="#bb"/><use transform="matrix(0.05,0,0,0.05,22.950000000000003,0)" xlink:href="#bh"/><use transform="matrix(0.05,0,0,0.05,31.950000000000003,0)" xlink:href="#bj"/><use transform="matrix(0.05,0,0,0.05,35.900000000000006,0)" xlink:href="#bd"/></g><path fill="#333" d="M128 0H69L1-190h53L99-40l48-150h52" id="ck"/><path fill="#333" d="M25 0v-261h50V0H25" id="cl"/><path fill="#333" d="M133-34C117-15 103 5 69 4 32 3 11-16 11-54c-1-60 55-63 116-61 1-26-3-47-28-47-18 1-26 9-28 27l-52-2c7-38 36-58 82-57s74 22 75 68l1 82c-1 14 12 18 25 15v27c-30 8-71 5-69-32zm-48 3c29 0 43-24 42-57-32 0-66-3-65 30 0 17 8 27 23 27" id="cm"/><path fill="#333" d="M137-138c1-29-70-34-71-4 15 46 118 7 119 86 1 83-164 76-172 9l43-7c4 19 20 25 44 25 33 8 57-30 24-41C81-84 22-81 20-136c-2-80 154-74 161-7" id="cn"/><path fill="#333" d="M115-3C79 11 28 4 28-45v-112H4v-33h27l15-45h31v45h36v33H77v99c-1 23 16 31 38 25v30" id="co"/><path fill="#333" d="M135-194c87-1 58 113 63 194h-50c-7-57 23-157-34-157-59 0-34 97-39 157H25l-1-190h47c2 12-1 28 3 38 12-26 28-41 61-42" id="cp"/><path fill="#333" d="M25 0v-190h50V0H25zm-5-208v-5l45-51h45v8l-60 48H20" id="cq"/><g id="ag"><use transform="matrix(0.04938271604938272,0,0,0.04938271604938272,0,0)" xlink:href="#ck"/><use transform="matrix(0.04938271604938272,0,0,0.04938271604938272,9.876543209876544,0)" xlink:href="#cl"/><use transform="matrix(0.04938271604938272,0,0,0.04938271604938272,14.814814814814817,0)" xlink:href="#cm"/><use transform="matrix(0.04938271604938272,0,0,0.04938271604938272,24.69135802469136,0)" xlink:href="#cn"/><use transform="matrix(0.04938271604938272,0,0,0.04938271604938272,34.567901234567906,0)" xlink:href="#co"/><use transform="matrix(0.04938271604938272,0,0,0.04938271604938272,40.44444444444445,0)" xlink:href="#cp"/><use transform="matrix(0.04938271604938272,0,0,0.04938271604938272,51.25925925925927,0)" xlink:href="#cq"/></g><path fill="#333" d="M110-194c64 0 96 36 96 99 0 64-35 99-97 99-61 0-95-36-95-99 0-62 34-99 96-99zm-1 164c35 0 45-28 45-65 0-40-10-65-43-65-34 0-45 26-45 65 0 36 10 65 43 65" id="cr"/><use transform="matrix(0.04938271604938272,0,0,0.04938271604938272,0,0)" xlink:href="#cr" id="ah"/><path fill="#333" d="M24-248c93 1 206-16 204 79-1 75-69 88-152 82V0H24v-248zm52 121c47 0 100 7 100-41 0-47-54-39-100-39v80" id="cs"/><path fill="#333" d="M88-194c31-1 46 15 58 34l-1-101h50l1 261h-48c-2-10 0-23-3-31C134-8 116 4 84 4 32 4 16-41 15-95c0-56 19-97 73-99zm17 164c33 0 40-30 41-66 1-37-9-64-41-64s-38 30-39 65c0 43 13 65 39 65" id="ct"/><path fill="#333" d="M132-34C116-15 102 5 68 4 31 3 10-16 10-54c-1-60 55-63 116-61 1-26-3-47-28-47-18 1-26 9-28 27l-52-2c7-38 36-58 82-57s74 22 75 68l1 82c-1 14 12 18 25 15v27c-30 8-71 5-69-32zm-48 3c29 0 43-24 42-57-32 0-66-3-65 30 0 17 8 27 23 27zM66-208v-5l45-51h45v8l-60 48H66" id="cu"/><g id="ai"><use transform="matrix(0.04938271604938272,0,0,0.04938271604938272,0,0)" xlink:href="#cs"/><use transform="matrix(0.04938271604938272,0,0,0.04938271604938272,11.851851851851853,0)" xlink:href="#cr"/><use transform="matrix(0.04938271604938272,0,0,0.04938271604938272,22.666666666666668,0)" xlink:href="#ct"/><use transform="matrix(0.04938271604938272,0,0,0.04938271604938272,33.48148148148148,0)" xlink:href="#cu"/><use transform="matrix(0.04938271604938272,0,0,0.04938271604938272,43.358024691358025,0)" xlink:href="#ck"/><use transform="matrix(0.04938271604938272,0,0,0.04938271604938272,53.23456790123457,0)" xlink:href="#cu"/></g><path fill="#333" d="M185-48c-13 30-37 53-82 52C43 2 14-33 14-96s30-98 90-98c62 0 83 45 84 108H66c0 31 8 55 39 56 18 0 30-7 34-22zm-45-69c5-46-57-63-70-21-2 6-4 13-4 21h74" id="cv"/><path fill="#333" d="M135-194c53 0 70 44 70 98 0 56-19 98-73 100-31 1-45-17-59-34 3 33 2 69 2 105H25l-1-265h48c2 10 0 23 3 31 11-24 29-35 60-35zM114-30c33 0 39-31 40-66 0-38-9-64-40-64-56 0-55 130 0 130" id="cw"/><path fill="#333" d="M25-224v-37h50v37H25zM25 0v-190h50V0H25" id="cx"/><path fill="#333" d="M85 4C-2 5 27-109 22-190h50c7 57-23 150 33 157 60-5 35-97 40-157h50l1 190h-47c-2-12 1-28-3-38-12 25-28 42-61 42" id="cy"/><path fill="#333" d="M25-224v-37h50v37H25zM75 22c2 45-34 59-81 51V38c22 5 31-5 31-27v-201h50V22" id="cz"/><g id="aj"><use transform="matrix(0.04938271604938272,0,0,0.04938271604938272,0,0)" xlink:href="#cs"/><use transform="matrix(0.04938271604938272,0,0,0.04938271604938272,11.851851851851853,0)" xlink:href="#cr"/><use transform="matrix(0.04938271604938272,0,0,0.04938271604938272,22.666666666666668,0)" xlink:href="#ct"/><use transform="matrix(0.04938271604938272,0,0,0.04938271604938272,33.48148148148148,0)" xlink:href="#cv"/><use transform="matrix(0.04938271604938272,0,0,0.04938271604938272,43.358024691358025,0)" xlink:href="#cw"/><use transform="matrix(0.04938271604938272,0,0,0.04938271604938272,54.17283950617284,0)" xlink:href="#cx"/><use transform="matrix(0.04938271604938272,0,0,0.04938271604938272,59.111111111111114,0)" xlink:href="#cn"/><use transform="matrix(0.04938271604938272,0,0,0.04938271604938272,68.98765432098766,0)" xlink:href="#cy"/><use transform="matrix(0.04938271604938272,0,0,0.04938271604938272,79.80246913580247,0)" xlink:href="#cz"/><use transform="matrix(0.04938271604938272,0,0,0.04938271604938272,84.74074074074073,0)" xlink:href="#cv"/></g><path fill="#333" d="M210 0H11v-37l134-170H24v-41h178v36L68-41h142V0" id="cA"/><g id="ak"><use transform="matrix(0.04938271604938272,0,0,0.04938271604938272,0,0)" xlink:href="#cA"/><use transform="matrix(0.04938271604938272,0,0,0.04938271604938272,10.814814814814815,0)" xlink:href="#cm"/><use transform="matrix(0.04938271604938272,0,0,0.04938271604938272,20.69135802469136,0)" xlink:href="#ct"/><use transform="matrix(0.04938271604938272,0,0,0.04938271604938272,31.506172839506174,0)" xlink:href="#cu"/><use transform="matrix(0.04938271604938272,0,0,0.04938271604938272,41.38271604938272,0)" xlink:href="#ck"/><use transform="matrix(0.04938271604938272,0,0,0.04938271604938272,51.25925925925927,0)" xlink:href="#cu"/></g><path fill="#333" d="M12 0v-35l95-120H19v-35h142v35L67-36h103V0H12zm99-208H70l-45-56v-5h28c13 11 24 24 38 34l36-34h28c-9 26-31 39-44 61" id="cB"/><g id="al"><use transform="matrix(0.04938271604938272,0,0,0.04938271604938272,0,0)" xlink:href="#ck"/><use transform="matrix(0.04938271604938272,0,0,0.04938271604938272,9.876543209876544,0)" xlink:href="#cl"/><use transform="matrix(0.04938271604938272,0,0,0.04938271604938272,14.814814814814817,0)" xlink:href="#cr"/><use transform="matrix(0.04938271604938272,0,0,0.04938271604938272,25.629629629629633,0)" xlink:href="#cB"/><use transform="matrix(0.04938271604938272,0,0,0.04938271604938272,34.51851851851852,0)" xlink:href="#cx"/><use transform="matrix(0.04938271604938272,0,0,0.04938271604938272,39.45679012345679,0)" xlink:href="#co"/></g><path fill="#333" d="M4 7l51-268h42L46 7H4" id="cC"/><use transform="matrix(0.04938271604938272,0,0,0.04938271604938272,0,0)" xlink:href="#cC" id="am"/><path fill="#333" d="M135-194c52 0 70 43 70 98 0 56-19 99-73 100-30 1-46-15-58-35L72 0H24l1-261h50v104c11-23 29-37 60-37zM114-30c31 0 40-27 40-66 0-37-7-63-39-63s-41 28-41 65c0 36 8 64 40 64" id="cD"/><path fill="#333" d="M135-150c-39-12-60 13-60 57V0H25l-1-190h47c2 13-1 29 3 40 6-28 27-53 61-41v41" id="cE"/><g id="an"><use transform="matrix(0.04938271604938272,0,0,0.04938271604938272,0,0)" xlink:href="#cr"/><use transform="matrix(0.04938271604938272,0,0,0.04938271604938272,10.814814814814815,0)" xlink:href="#ct"/><use transform="matrix(0.04938271604938272,0,0,0.04938271604938272,21.62962962962963,0)" xlink:href="#cv"/><use transform="matrix(0.04938271604938272,0,0,0.04938271604938272,31.506172839506174,0)" xlink:href="#cD"/><use transform="matrix(0.04938271604938272,0,0,0.04938271604938272,42.32098765432099,0)" xlink:href="#cE"/><use transform="matrix(0.04938271604938272,0,0,0.04938271604938272,49.23456790123457,0)" xlink:href="#cm"/><use transform="matrix(0.04938271604938272,0,0,0.04938271604938272,59.111111111111114,0)" xlink:href="#co"/></g><g id="ao"><use transform="matrix(0.05802469135802469,0,0,0.05802469135802469,0,0)" xlink:href="#aC"/><use transform="matrix(0.05802469135802469,0,0,0.05802469135802469,15.028395061728395,0)" xlink:href="#bv"/><use transform="matrix(0.05802469135802469,0,0,0.05802469135802469,28.95432098765432,0)" xlink:href="#bo"/><use transform="matrix(0.05802469135802469,0,0,0.05802469135802469,42.880246913580244,0)" xlink:href="#bU"/><use transform="matrix(0.05802469135802469,0,0,0.05802469135802469,48.68271604938271,0)" xlink:href="#bz"/><use transform="matrix(0.05802469135802469,0,0,0.05802469135802469,63.71111111111111,0)" xlink:href="#bs"/><use transform="matrix(0.05802469135802469,0,0,0.05802469135802469,77.63703703703703,0)" xlink:href="#bv"/></g><g id="ap"><use transform="matrix(0.05802469135802469,0,0,0.05802469135802469,0,0)" xlink:href="#bs"/><use transform="matrix(0.05802469135802469,0,0,0.05802469135802469,13.925925925925926,0)" xlink:href="#aD"/></g><g id="aq"><use transform="matrix(0.05802469135802469,0,0,0.05802469135802469,0,0)" xlink:href="#bs"/><use transform="matrix(0.05802469135802469,0,0,0.05802469135802469,13.925925925925926,0)" xlink:href="#aF"/><use transform="matrix(0.05802469135802469,0,0,0.05802469135802469,30.172839506172846,0)" xlink:href="#bt"/><use transform="matrix(0.05802469135802469,0,0,0.05802469135802469,45.20123456790124,0)" xlink:href="#bi"/><use transform="matrix(0.05802469135802469,0,0,0.05802469135802469,59.12716049382716,0)" xlink:href="#aH"/></g><g id="ar"><use transform="matrix(0.05,0,0,0.05,0,0)" xlink:href="#aK"/><use transform="matrix(0.05,0,0,0.05,10.5,0)" xlink:href="#aK"/><use transform="matrix(0.05,0,0,0.05,21,0)" xlink:href="#aL"/><use transform="matrix(0.05,0,0,0.05,33,0)" xlink:href="#aM"/><use transform="matrix(0.05,0,0,0.05,45.95,0)" xlink:href="#aN"/><use transform="matrix(0.05,0,0,0.05,56.45,0)" xlink:href="#aN"/></g><g id="as"><use transform="matrix(0.05,0,0,0.05,0,0)" xlink:href="#aO"/><use transform="matrix(0.05,0,0,0.05,5,0)" xlink:href="#aP"/></g><path d="M135-194c52 0 70 43 70 98 0 56-19 99-73 100-30 1-46-15-58-35L72 0H24l1-261h50v104c11-23 29-37 60-37zM114-30c31 0 40-27 40-66 0-37-7-63-39-63s-41 28-41 65c0 36 8 64 40 64" id="cF"/><g id="at"><use transform="matrix(0.05,0,0,0.05,0,0)" xlink:href="#aQ"/><use transform="matrix(0.05,0,0,0.05,10.950000000000001,0)" xlink:href="#bH"/><use transform="matrix(0.05,0,0,0.05,20.950000000000003,0)" xlink:href="#cF"/><use transform="matrix(0.05,0,0,0.05,31.900000000000006,0)" xlink:href="#ci"/><use transform="matrix(0.05,0,0,0.05,36.900000000000006,0)" xlink:href="#bX"/><use transform="matrix(0.05,0,0,0.05,47.85000000000001,0)" xlink:href="#ch"/><use transform="matrix(0.05,0,0,0.05,57.85,0)" xlink:href="#by"/></g><path d="M24 0v-54h51V0H24" id="cG"/><g id="au"><use transform="matrix(0.05,0,0,0.05,0,0)" xlink:href="#ch"/><use transform="matrix(0.05,0,0,0.05,10,0)" xlink:href="#cG"/></g><g id="av"><use transform="matrix(0.05,0,0,0.05,0,0)" xlink:href="#ch"/><use transform="matrix(0.05,0,0,0.05,10,0)" xlink:href="#cG"/></g><g id="aw"><use transform="matrix(0.05,0,0,0.05,0,0)" xlink:href="#aG"/><use transform="matrix(0.05,0,0,0.05,12,0)" xlink:href="#bN"/><use transform="matrix(0.05,0,0,0.05,21,0)" xlink:href="#bq"/><use transform="matrix(0.05,0,0,0.05,30,0)" xlink:href="#bb"/></g><g id="ax"><use transform="matrix(0.05,0,0,0.05,0,0)" xlink:href="#ba"/><use transform="matrix(0.05,0,0,0.05,10,0)" xlink:href="#bm"/><use transform="matrix(0.05,0,0,0.05,20,0)" xlink:href="#bD"/><use transform="matrix(0.05,0,0,0.05,30,0)" xlink:href="#br"/><use transform="matrix(0.05,0,0,0.05,35,0)" xlink:href="#bP"/><use transform="matrix(0.05,0,0,0.05,45,0)" xlink:href="#ca"/><use transform="matrix(0.05,0,0,0.05,54,0)" xlink:href="#aY"/></g><path d="M87 75C49 33 22-17 22-94c0-76 28-126 65-167h31c-38 41-64 92-64 168S80 34 118 75H87" id="cH"/><g id="ay"><use transform="matrix(0.05,0,0,0.05,0,0)" xlink:href="#cH"/><use transform="matrix(0.05,0,0,0.05,5.95,0)" xlink:href="#be"/></g><path d="M33-261c38 41 65 92 65 168S71 34 33 75H2C39 34 66-17 66-93S39-220 2-261h31" id="cI"/><g id="az"><use transform="matrix(0.05,0,0,0.05,0,0)" xlink:href="#ca"/><use transform="matrix(0.05,0,0,0.05,9,0)" xlink:href="#bd"/><use transform="matrix(0.05,0,0,0.05,19,0)" xlink:href="#bZ"/><use transform="matrix(0.05,0,0,0.05,24.95,0)" xlink:href="#bA"/><use transform="matrix(0.05,0,0,0.05,34.95,0)" xlink:href="#ba"/><use transform="matrix(0.05,0,0,0.05,44.95,0)" xlink:href="#bM"/><use transform="matrix(0.05,0,0,0.05,54.95,0)" xlink:href="#bk"/><use transform="matrix(0.05,0,0,0.05,63.95,0)" xlink:href="#bl"/><use transform="matrix(0.05,0,0,0.05,73.95,0)" xlink:href="#cI"/></g><g id="aA"><use transform="matrix(0.05061728395061728,0,0,0.05061728395061728,0,0)" xlink:href="#ba"/><use transform="matrix(0.05061728395061728,0,0,0.05061728395061728,10.123456790123456,0)" xlink:href="#bm"/><use transform="matrix(0.05061728395061728,0,0,0.05061728395061728,20.24691358024691,0)" xlink:href="#bD"/><use transform="matrix(0.05061728395061728,0,0,0.05061728395061728,30.370370370370367,0)" xlink:href="#br"/><use transform="matrix(0.05061728395061728,0,0,0.05061728395061728,35.432098765432094,0)" xlink:href="#bP"/><use transform="matrix(0.05061728395061728,0,0,0.05061728395061728,45.55555555555555,0)" xlink:href="#ca"/><use transform="matrix(0.05061728395061728,0,0,0.05061728395061728,54.66666666666666,0)" xlink:href="#aY"/></g><g id="aB"><use transform="matrix(0.04938271604938272,0,0,0.04938271604938272,0,0)" xlink:href="#cw"/><use transform="matrix(0.04938271604938272,0,0,0.04938271604938272,10.814814814814815,0)" xlink:href="#cr"/><use transform="matrix(0.04938271604938272,0,0,0.04938271604938272,21.62962962962963,0)" xlink:href="#ct"/><use transform="matrix(0.04938271604938272,0,0,0.04938271604938272,32.44444444444444,0)" xlink:href="#cu"/><use transform="matrix(0.04938271604938272,0,0,0.04938271604938272,42.32098765432099,0)" xlink:href="#ck"/><use transform="matrix(0.04938271604938272,0,0,0.04938271604938272,52.19753086419754,0)" xlink:href="#cu"/></g></defs></g></svg>